<?xml version="1.0" standalone="no"?>
<!DOCTYPE svg PUBLIC "-//W3C//DTD SVG 20010904//EN"
 "http://www.w3.org/TR/2001/REC-SVG-20010904/DTD/svg10.dtd">
<svg version="1.0" xmlns="http://www.w3.org/2000/svg"
 width="1240.000000pt" height="1240.000000pt" viewBox="0 0 1240.000000 1240.000000"
 preserveAspectRatio="xMidYMid meet">
<metadata>
Created by potrace 1.11, written by Peter Selinger 2001-2013
</metadata>
<g transform="translate(0.000000,1240.000000) scale(0.100000,-0.100000)"
fill="#000000" stroke="none">
<path d="M11834 11815 c-45 -7 -90 -20 -100 -29 -100 -88 -179 -143 -221 -155
-26 -7 -70 -21 -98 -31 -27 -10 -63 -21 -79 -25 -47 -10 -358 -15 -370 -6 -6
4 -18 8 -26 8 -16 0 -108 12 -150 20 -50 9 -185 10 -202 2 -9 -5 -34 -12 -55
-15 -21 -3 -42 -9 -48 -12 -5 -3 -32 -7 -60 -8 -27 -1 -72 -5 -99 -8 -30 -3
-55 -1 -63 6 -7 6 -16 8 -20 4 -3 -3 -13 0 -22 7 -26 21 -86 38 -128 36 -21
-1 -63 -14 -93 -28 -30 -14 -61 -26 -68 -27 -8 -2 -21 -6 -30 -10 -9 -4 -24
-9 -32 -10 -8 -2 -45 -10 -82 -18 -92 -21 -158 -21 -261 -2 -83 16 -108 16
-267 2 -25 -2 -52 -7 -60 -10 -25 -10 -100 -14 -105 -6 -3 4 -21 4 -40 0 -19
-4 -35 -5 -35 -1 0 4 -8 7 -17 8 -10 1 -59 11 -109 21 -94 20 -162 17 -234
-11 -8 -3 -49 -8 -92 -10 -42 -3 -81 -7 -86 -11 -6 -3 -13 -2 -16 3 -3 5 -33
8 -67 7 -33 0 -62 1 -64 4 -2 3 -78 5 -168 4 -120 0 -170 -4 -181 -14 -9 -7
-16 -8 -16 -2 0 10 -15 8 -130 -26 -90 -26 -375 -21 -403 7 -6 6 -18 11 -27
11 -9 0 -25 8 -36 18 -11 9 -26 18 -34 20 -8 2 -22 10 -31 18 -9 8 -20 14 -25
13 -5 -2 -25 1 -44 6 -19 5 -64 8 -100 7 -35 0 -69 3 -75 7 -5 5 -25 9 -43 9
-18 0 -40 6 -48 13 -8 6 -14 8 -14 5 0 -4 -12 -1 -27 7 -16 8 -46 19 -68 25
-43 10 -196 9 -214 -2 -6 -4 -11 -3 -11 1 0 5 -12 8 -27 8 -16 -1 -38 5 -50
12 -13 7 -23 10 -23 6 0 -5 -4 -2 -8 4 -5 7 -20 14 -34 15 -15 1 -25 5 -22 9
3 6 -26 21 -46 24 -3 0 -11 4 -17 8 -7 5 -13 5 -13 0 0 -4 -11 -9 -25 -9 -36
-3 -86 -25 -79 -35 3 -5 1 -9 -5 -9 -5 0 -16 -6 -23 -13 -20 -20 -120 -67
-129 -61 -4 2 -13 -5 -19 -16 -6 -11 -15 -18 -20 -15 -6 3 -24 -1 -42 -9 -18
-9 -51 -18 -73 -22 -22 -3 -44 -9 -50 -14 -5 -4 -26 -10 -45 -13 -69 -12 -95
-18 -100 -25 -14 -19 -67 -41 -77 -31 -7 7 -15 5 -26 -6 -9 -9 -18 -14 -21
-13 -2 2 -7 0 -11 -4 -4 -4 9 -10 29 -13 20 -4 33 -11 30 -16 -3 -5 -11 -6
-17 -2 -7 4 -6 0 2 -10 7 -9 17 -14 22 -11 5 3 9 2 8 -3 -3 -20 2 -27 12 -13
8 12 9 10 4 -7 -3 -13 -2 -23 3 -23 12 0 35 -55 30 -72 -3 -7 1 -24 8 -37 10
-20 11 -27 1 -33 -9 -6 -9 -8 0 -8 7 0 11 -12 10 -29 -1 -16 -4 -28 -7 -26 -3
1 -14 -1 -25 -6 -20 -8 -20 -8 0 -8 35 -1 44 -18 32 -57 -11 -35 -1 -68 33
-105 8 -9 27 -30 43 -47 15 -17 35 -31 45 -30 24 0 57 -9 81 -21 11 -6 29 -11
41 -11 12 0 19 -4 16 -9 -3 -4 7 -7 22 -6 41 3 44 4 36 17 -4 7 -3 8 5 4 6 -4
8 -12 5 -18 -5 -8 -1 -9 10 -5 10 4 20 7 22 7 3 0 3 4 -1 9 -3 5 4 12 15 16
11 3 20 13 20 20 0 8 5 17 12 21 7 4 8 3 4 -4 -4 -7 -3 -12 3 -12 5 0 13 9 16
20 4 11 11 17 17 14 6 -4 8 -2 4 4 -3 6 -2 13 3 16 5 4 12 2 16 -3 3 -6 15 -7
27 -2 12 4 37 5 55 1 38 -9 44 -4 11 10 -18 7 -19 9 -5 9 9 1 17 7 17 15 0 10
9 13 31 9 16 -2 36 1 44 7 17 14 69 24 61 11 -7 -11 13 -9 33 3 10 6 12 5 7
-2 -10 -16 17 -15 32 0 9 9 12 8 12 -5 0 -20 11 -22 27 -6 14 14 94 19 86 5
-4 -5 3 -7 15 -4 12 4 24 3 27 -2 6 -9 55 -8 72 3 6 4 14 3 18 -3 3 -5 0 -10
-7 -11 -7 0 -3 -4 10 -9 12 -5 22 -15 22 -22 0 -9 3 -9 10 2 13 20 12 33 -2
24 -6 -4 -8 -3 -4 4 3 5 1 13 -4 15 -6 3 -5 4 2 3 6 -1 16 -11 22 -22 6 -10
12 -21 13 -23 2 -2 21 -5 42 -5 22 -1 37 2 35 6 -2 3 0 9 6 13 5 3 10 11 10
18 0 6 -6 3 -13 -6 -13 -19 -67 -28 -65 -12 1 6 10 9 20 7 11 -2 26 2 35 9 18
16 46 21 37 8 -3 -5 2 -12 10 -15 16 -6 12 -24 -5 -24 -6 0 -7 5 -3 12 4 7 3
8 -4 4 -16 -10 -15 -14 9 -27 12 -6 19 -7 15 -1 -3 5 11 9 34 8 21 0 34 -4 28
-7 -15 -10 0 -29 23 -29 11 0 18 4 14 10 -3 5 -13 7 -23 4 -13 -5 -14 -4 -3 4
18 13 46 9 46 -6 0 -16 11 -19 22 -8 5 5 2 6 -6 1 -10 -5 -12 -4 -7 3 5 8 13
9 24 3 19 -9 77 20 65 33 -4 4 0 4 10 0 9 -3 15 -10 12 -14 -3 -4 6 -7 19 -6
14 0 22 6 19 14 -3 6 0 12 6 12 6 0 11 -5 11 -11 0 -6 7 -9 15 -5 8 3 15 1 15
-4 0 -5 8 -7 18 -5 46 9 72 18 72 25 0 4 12 5 28 2 24 -5 26 -4 13 12 -12 14
-12 16 3 10 10 -4 16 -1 16 7 0 7 3 9 7 6 3 -4 12 -2 20 4 9 9 13 8 13 0 0 -6
15 -11 33 -11 21 0 28 3 19 9 -16 9 15 23 58 25 14 0 30 4 35 7 18 12 85 28
80 19 -3 -5 -1 -11 5 -15 5 -3 10 1 10 10 0 13 6 15 30 10 19 -4 30 -3 30 4 0
6 7 11 16 11 9 0 13 -5 9 -12 -4 -7 -1 -6 7 3 13 16 43 15 33 -1 -3 -4 4 -6
15 -3 11 3 18 8 16 12 -3 4 4 7 14 7 10 0 16 -5 13 -11 -3 -5 0 -5 7 2 9 8 19
9 31 3 12 -7 19 -5 23 6 5 12 9 14 20 5 13 -11 97 -17 126 -8 68 19 198 29
206 16 3 -5 14 -5 24 1 10 5 25 7 33 5 26 -11 162 -12 175 -2 8 6 12 6 12 -2
0 -7 5 -9 12 -5 7 4 57 9 113 10 142 3 247 14 292 29 20 7 46 11 55 10 10 -2
18 1 18 6 0 6 10 10 23 9 12 -1 25 -1 30 0 4 1 10 3 15 5 10 3 46 17 56 23 5
3 6 0 2 -6 -4 -7 -2 -12 3 -12 6 0 11 4 11 9 0 5 7 12 16 15 8 3 12 2 9 -4 -9
-14 19 -12 33 2 7 7 12 9 12 6 0 -4 14 -3 30 2 17 5 30 5 30 2 0 -12 95 -3
118 11 7 5 12 4 12 -2 0 -13 42 -10 52 4 5 6 8 5 8 -4 0 -10 3 -11 14 -2 9 8
15 8 18 2 1 -6 15 -11 31 -11 15 0 38 0 53 0 16 0 23 4 18 12 -4 7 -3 8 4 4 6
-4 39 -7 74 -6 87 0 101 1 118 7 8 3 32 7 53 9 20 2 42 6 47 9 6 3 10 1 10 -5
0 -6 5 -8 12 -4 7 5 35 10 63 12 27 2 67 5 87 6 21 1 41 6 45 11 5 4 2 5 -4 1
-19 -10 -16 -1 4 15 9 8 14 9 10 3 -4 -7 0 -14 8 -18 8 -3 15 0 15 6 0 9 3 9
12 0 7 -7 17 -8 28 -2 9 5 36 10 58 11 23 2 42 7 42 12 0 4 7 1 16 -8 14 -13
19 -14 25 -3 7 10 9 10 9 1 0 -7 5 -13 11 -13 5 0 8 3 6 8 -3 4 54 7 126 6 78
0 138 4 146 10 11 9 13 8 7 -2 -6 -10 -3 -13 10 -10 11 2 25 -3 32 -12 8 -8
11 -10 8 -4 -8 15 14 23 38 14 28 -9 67 0 59 14 -4 6 1 5 11 -3 14 -12 19 -12
26 -2 6 11 8 11 12 1 3 -10 9 -10 25 -2 17 10 22 9 27 -5 6 -14 8 -14 24 1 10
9 23 16 28 16 5 0 2 -5 -6 -11 -11 -8 -8 -9 15 -4 30 7 131 10 195 6 19 -2 45
0 57 2 13 3 26 1 29 -5 5 -7 2 -8 -6 -3 -9 6 -11 4 -6 -4 6 -10 12 -9 24 2 17
14 71 14 81 0 8 -11 34 -16 27 -5 -6 10 153 15 302 9 28 -1 52 0 52 4 0 3 21
5 48 4 30 -1 51 4 58 14 9 11 12 12 19 1 5 -9 4 -11 -3 -6 -7 4 -12 2 -12 -3
0 -14 1 -14 38 5 18 8 37 12 44 8 7 -4 10 -4 6 1 -11 12 11 35 34 35 12 0 17
4 12 13 -4 6 -4 9 1 5 4 -4 20 1 35 12 16 11 33 20 40 20 6 0 9 4 6 9 -4 5 3
7 14 4 11 -3 20 0 20 6 0 9 5 9 20 1 19 -10 24 -6 21 13 -1 5 3 6 9 2 6 -3 8
-11 5 -16 -9 -14 3 -11 32 9 18 11 24 12 19 4 -7 -11 -4 -12 12 -3 26 14 35
14 27 1 -11 -17 -2 -14 68 22 20 10 21 10 8 -5 -7 -10 -9 -17 -3 -17 18 0 22
29 22 151 0 81 -3 118 -10 114 -13 -8 -42 14 -35 25 6 10 -21 7 -31 -3 -12
-11 -24 -8 -21 5 1 7 -8 14 -21 16 -13 2 -26 10 -29 18 -3 10 -12 12 -26 8
-16 -5 -19 -3 -14 10 4 9 2 16 -3 16 -6 0 -10 -5 -10 -11 0 -6 -12 -1 -26 10
-15 11 -30 18 -35 15 -5 -3 -9 0 -9 5 0 6 -6 11 -12 11 -7 1 -31 9 -53 20 -46
22 -111 24 -231 5z m-4546 -870 c-3 -3 -9 2 -12 12 -6 14 -5 15 5 6 7 -7 10
-15 7 -18z"/>
<path d="M4255 11537 c-65 -11 -82 -14 -130 -27 -22 -5 -74 -13 -115 -16 -113
-10 -420 -10 -465 -1 -58 12 -287 7 -345 -8 -14 -4 -52 -8 -85 -11 -33 -2 -89
-7 -125 -10 -108 -9 -312 -5 -305 5 6 10 -185 2 -228 -10 -23 -6 -87 -13 -142
-15 -107 -4 -124 -6 -141 -16 -5 -4 -28 -7 -50 -7 -21 0 -61 -4 -89 -8 -27 -5
-67 -9 -87 -8 -21 0 -38 -4 -38 -10 0 -6 -3 -6 -8 0 -4 6 -27 12 -52 13 -25 2
-67 7 -95 12 -27 5 -63 7 -80 5 -16 -3 -57 -7 -89 -10 -33 -4 -65 -9 -70 -13
-6 -4 -18 -7 -26 -7 -8 -1 -37 -8 -65 -17 -49 -15 -64 -18 -142 -19 -60 -1
-157 11 -167 22 -6 5 -19 9 -31 9 -12 0 -25 4 -30 9 -24 24 -155 12 -187 -17
-10 -8 -18 -12 -18 -8 0 4 -12 -1 -28 -12 -36 -25 -87 -47 -142 -63 -50 -14
-55 -15 -158 -23 -40 -3 -76 -7 -80 -8 -13 -3 -127 14 -159 23 -99 31 -152 31
-228 -1 -11 -4 -28 -11 -37 -14 -17 -5 -18 -29 -18 -316 l0 -311 21 11 c16 9
18 14 8 26 -12 14 -7 18 23 15 9 -1 20 3 24 10 4 8 3 9 -4 5 -17 -10 -15 9 3
24 8 6 19 9 25 5 5 -3 10 1 10 10 0 11 5 15 16 11 8 -3 13 -2 10 3 -3 5 1 11
9 15 8 3 15 0 15 -6 0 -7 4 -7 13 0 6 6 30 13 52 17 22 4 46 12 53 18 6 5 12
5 12 1 0 -5 13 -10 30 -10 17 -1 27 2 24 8 -4 6 2 7 17 3 35 -12 349 -14 349
-3 0 5 5 6 10 3 6 -3 10 -1 10 5 0 6 5 8 10 5 6 -3 10 -1 10 4 0 6 5 11 11 11
5 0 8 -4 4 -9 -7 -12 26 -7 53 8 11 6 22 8 24 5 7 -7 138 -6 168 1 14 3 67 7
118 10 51 2 96 6 100 9 5 3 26 1 47 -4 22 -5 42 -6 45 -2 7 10 60 10 60 -1 0
-4 4 -6 8 -3 5 3 31 8 58 10 27 3 65 9 84 14 19 4 47 7 63 7 15 -1 27 3 27 7
0 4 5 8 11 8 5 0 7 -5 3 -12 -5 -7 -3 -8 6 -3 12 8 68 11 237 15 29 1 55 5 58
9 2 5 23 6 46 4 30 -3 39 -1 33 8 -5 8 -2 10 8 6 9 -3 21 0 27 6 8 8 11 8 11
-1 0 -9 5 -10 19 -2 14 7 20 7 23 -2 3 -8 10 -8 27 1 23 13 111 8 134 -6 6 -3
7 -1 3 5 -8 13 20 6 42 -11 8 -6 12 -6 12 1 0 6 31 9 85 7 47 -2 85 0 85 4 0
4 24 4 53 -1 97 -17 129 -19 121 -5 -6 8 -3 8 8 -1 12 -10 18 -10 23 -1 6 8
10 7 16 -2 7 -11 9 -11 9 -1 0 8 5 10 12 6 18 -11 57 -11 51 0 -4 5 1 7 10 3
10 -3 17 -3 17 2 0 4 6 8 13 9 6 1 32 3 57 6 25 2 81 7 125 10 44 4 121 12
170 19 50 7 107 10 128 6 21 -3 40 -3 42 1 2 3 22 5 44 4 25 -1 41 2 41 10 0
7 3 7 8 1 4 -5 52 -10 107 -11 134 -2 249 -9 263 -18 6 -3 14 -2 17 4 4 7 11
7 18 2 7 -5 21 -7 32 -5 26 6 55 5 83 -2 18 -4 22 -2 16 7 -6 10 -4 10 7 2 8
-6 47 -9 89 -8 41 1 83 -2 92 -7 13 -7 18 -6 18 3 0 8 3 9 8 3 4 -6 25 -10 47
-9 22 1 48 -2 58 -7 9 -6 17 -6 17 -2 0 9 17 10 242 15 81 3 150 7 154 11 3 3
17 2 30 -3 13 -5 24 -6 24 -1 0 5 8 8 18 8 33 0 43 3 38 11 -2 4 10 8 27 9 18
0 39 3 47 5 44 13 60 20 60 30 0 5 7 7 16 4 9 -3 12 -2 9 5 -4 6 3 13 15 16
13 3 19 11 16 19 -3 8 0 14 7 14 7 0 21 9 30 21 14 15 15 24 7 34 -9 11 -7 12
9 8 12 -3 18 -10 14 -16 -3 -6 -1 -7 6 -3 6 4 9 12 6 17 -4 5 -1 9 4 9 6 0 11
5 11 11 0 5 -4 7 -10 4 -5 -3 -10 -2 -10 2 0 5 9 14 20 21 16 10 18 17 10 37
-6 15 -6 26 1 30 5 4 7 10 5 14 -9 14 -15 61 -8 60 19 -3 23 2 13 15 -8 10 -9
16 -1 21 16 10 13 65 -4 65 -8 0 -17 9 -21 19 -4 15 -18 20 -63 24 -95 9 -131
8 -152 -3 -14 -8 -20 -8 -20 0 0 6 -5 8 -11 4 -7 -4 -36 -7 -65 -6 -30 0 -57
-4 -60 -9 -3 -5 -10 -6 -17 -2 -6 4 -38 8 -71 9 -61 3 -158 24 -206 45 -40 18
-121 25 -175 16z"/>
<path d="M5780 11090 c0 -5 5 -10 11 -10 5 0 7 5 4 10 -3 6 -8 10 -11 10 -2 0
-4 -4 -4 -10z"/>
<path d="M6625 10979 c-4 -6 -4 -13 -1 -16 3 -4 6 -1 6 6 0 7 5 9 12 5 7 -4 8
-3 4 4 -9 15 -13 15 -21 1z"/>
<path d="M6670 10980 c-9 -6 -10 -10 -3 -10 6 0 15 5 18 10 8 12 4 12 -15 0z"/>
<path d="M6390 10961 c0 -6 4 -13 10 -16 6 -3 7 1 4 9 -7 18 -14 21 -14 7z"/>
<path d="M9556 10464 c-6 -15 -9 -16 -16 -4 -7 11 -11 11 -24 1 -13 -11 -19
-11 -33 0 -15 12 -16 12 -10 -4 5 -13 3 -16 -5 -10 -17 10 -48 11 -42 1 3 -4
1 -8 -5 -8 -5 0 -12 4 -15 9 -4 5 -29 4 -61 -4 -30 -7 -57 -9 -61 -6 -4 3 -5
-1 -2 -9 2 -8 -4 -23 -14 -34 -10 -11 -18 -23 -18 -28 0 -13 18 -9 23 5 3 6 4
2 4 -11 -1 -16 -6 -21 -17 -17 -12 5 -12 3 -3 -6 6 -6 26 -12 42 -13 24 -1 30
-5 25 -18 -2 -9 1 -20 7 -24 8 -5 9 -3 4 6 -6 10 -3 11 16 5 13 -4 45 -8 70
-9 25 -2 51 -6 59 -11 9 -5 11 -4 6 3 -7 11 -2 13 42 15 9 1 20 6 24 12 5 6 8
6 8 -2 0 -10 7 -10 28 -2 15 6 38 13 52 15 14 3 34 8 45 11 11 4 26 7 34 7 16
1 28 26 13 26 -6 0 -12 -4 -14 -10 -2 -6 -8 -6 -18 0 -13 8 -12 10 3 10 9 0
17 5 17 10 0 7 7 7 21 -1 15 -8 19 -8 15 0 -4 7 1 11 13 11 12 0 21 4 21 9 0
5 -8 7 -19 4 -11 -3 -21 2 -24 11 -4 9 -2 16 3 16 6 0 10 -4 10 -9 0 -11 47
-8 58 4 4 4 1 5 -5 1 -7 -4 -13 -3 -13 1 0 11 -100 34 -114 26 -6 -4 -5 1 2
10 12 14 11 16 -7 12 -12 -2 -26 -7 -33 -11 -7 -5 -8 -3 -3 5 6 10 3 11 -12 3
-12 -7 -25 -7 -36 -1 -9 6 -17 6 -17 2 0 -4 -4 -2 -9 5 -6 11 -10 10 -15 -4z"/>
<path d="M5495 10283 c-178 -50 -352 -142 -470 -248 -35 -31 -37 -35 -15 -29
14 3 52 19 85 34 33 16 71 31 85 35 23 6 23 5 -5 -14 -16 -12 -40 -21 -52 -21
-12 0 -25 -5 -29 -11 -3 -6 1 -10 12 -9 46 5 46 -2 -2 -30 -63 -36 -97 -75
-119 -137 -46 -125 -106 -224 -182 -295 l-28 -27 -52 18 -52 18 40 68 c22 38
65 99 94 135 30 36 71 85 92 110 l37 45 -48 -45 c-49 -46 -168 -198 -221 -282
-17 -26 -36 -50 -44 -53 -30 -12 -27 -6 91 158 l46 65 -34 29 c-23 18 -33 35
-31 48 4 25 -63 92 -90 90 -10 -1 -29 -8 -43 -15 -14 -8 -61 -21 -104 -30 -75
-15 -81 -18 -93 -49 -11 -27 -12 -33 -1 -29 7 3 21 -2 30 -11 16 -15 16 -18 0
-39 l-17 -22 -85 25 c-47 13 -105 25 -130 25 -27 0 -58 8 -77 20 -18 11 -33
17 -33 14 0 -3 -7 2 -16 10 -8 9 -21 16 -29 16 -7 0 -15 3 -17 8 -5 12 -101
45 -146 50 -56 5 -84 -2 -121 -34 -37 -31 -39 -40 -7 -48 21 -5 178 -111 250
-168 16 -13 35 -25 41 -28 9 -4 7 -10 -4 -22 -16 -16 -21 -15 -87 17 -39 19
-77 41 -84 50 -7 8 -16 12 -21 9 -5 -3 -9 1 -9 9 0 19 -36 50 -63 53 -35 4
-127 38 -127 48 0 9 53 4 85 -9 l20 -8 -20 16 c-26 21 -89 21 -119 2 -29 -19
-81 -95 -65 -95 6 0 41 -29 77 -64 37 -35 113 -93 170 -129 56 -37 102 -72
102 -80 0 -24 -25 -48 -43 -41 -9 3 -17 11 -17 16 0 6 -8 4 -17 -3 -14 -12
-16 -12 -11 1 3 8 -1 21 -8 28 -8 7 -14 8 -14 2 0 -5 -5 -10 -10 -10 -6 0 -9
6 -8 13 2 6 -5 11 -14 9 -20 -3 -24 14 -5 21 6 3 2 6 -9 6 -12 1 -25 8 -28 17
-4 9 -9 14 -12 11 -8 -7 -34 18 -34 32 0 5 -7 14 -16 19 -9 5 -42 35 -74 66
-57 56 -60 58 -99 51 -58 -10 -103 -61 -167 -189 -30 -59 -94 -174 -142 -255
-49 -80 -102 -170 -118 -200 -38 -71 -122 -134 -253 -190 -60 -26 -98 -47 -94
-54 3 -6 1 -7 -5 -3 -6 4 -77 -33 -157 -81 -110 -66 -141 -89 -129 -96 8 -5
23 -6 32 -2 14 5 15 4 5 -6 -10 -10 -20 -10 -40 -3 -23 8 -35 6 -63 -11 -19
-12 -50 -27 -68 -34 -18 -8 -31 -16 -28 -18 2 -2 21 3 41 11 42 18 55 20 55 8
0 -10 -88 -62 -105 -62 -13 0 -66 -20 -107 -41 -10 -5 -25 -9 -33 -9 -8 0 -23
-4 -33 -9 -9 -5 -32 -15 -49 -21 -18 -7 -33 -16 -33 -20 0 -4 -18 -10 -40 -14
-27 -4 -39 -10 -34 -18 4 -7 3 -8 -5 -4 -6 4 -25 0 -43 -8 -17 -9 -39 -16 -50
-16 -10 0 -18 -4 -18 -10 0 -5 -4 -10 -9 -10 -5 0 -22 -5 -38 -12 -15 -6 -36
-10 -47 -9 -10 2 -15 -2 -12 -8 4 -6 -8 -13 -29 -17 -19 -3 -35 -10 -35 -15 0
-5 -7 -9 -16 -9 -9 0 -12 -5 -8 -12 4 -7 3 -8 -4 -4 -12 7 -92 -13 -92 -23 0
-3 -13 -6 -29 -7 -27 -1 -63 -25 -61 -39 1 -4 -1 -9 -4 -13 -3 -3 -6 0 -6 6 0
18 -38 14 -58 -5 -9 -10 -21 -18 -27 -18 -26 -1 -75 -18 -75 -26 0 -5 -11 -9
-25 -9 -14 0 -25 -4 -25 -10 0 -5 -9 -10 -19 -10 -34 0 -50 -11 -44 -28 4 -13
3 -14 -6 -6 -15 14 -107 -9 -104 -25 2 -6 -10 -11 -25 -11 -16 0 -38 -9 -51
-21 -14 -13 -30 -19 -43 -16 -14 4 -22 0 -25 -12 -3 -13 -11 -17 -25 -13 -16
4 -19 2 -13 -8 6 -10 4 -12 -8 -7 -9 3 -19 2 -22 -3 -4 -6 -15 -10 -26 -10
-10 0 -19 -4 -19 -9 0 -4 -11 -6 -25 -3 -14 2 -25 0 -25 -6 0 -6 -14 -13 -30
-17 -17 -4 -28 -11 -24 -16 3 -5 0 -9 -6 -9 -6 0 -9 -4 -6 -8 3 -5 -8 -6 -25
-4 -23 3 -29 1 -29 -14 0 -16 2 -16 10 -4 5 8 11 12 14 9 13 -13 -16 -30 -55
-32 -29 -1 -43 -6 -41 -15 1 -9 -6 -10 -24 -6 -19 5 -25 4 -20 -5 4 -7 0 -11
-11 -11 -11 0 -28 -7 -39 -15 -18 -14 -18 -14 4 -15 13 0 20 4 17 10 -3 6 -2
10 4 10 5 0 13 -4 16 -10 8 -12 -38 -24 -63 -15 -14 4 -25 -1 -35 -15 -9 -13
-20 -18 -31 -14 -10 4 -16 1 -16 -9 0 -11 -6 -13 -22 -9 -18 4 -20 2 -16 -16
6 -23 -2 -28 -18 -12 -7 7 -23 3 -49 -10 -22 -11 -45 -20 -52 -20 -8 0 -16 -7
-19 -15 -4 -8 -15 -15 -25 -15 -10 0 -19 -4 -19 -9 0 -5 -16 -15 -35 -22 l-35
-13 3 -909 2 -909 190 -97 c608 -310 1104 -513 1520 -621 277 -72 513 -111
875 -145 229 -22 366 -42 475 -70 286 -75 355 -140 421 -402 83 -331 248 -716
449 -1048 122 -202 152 -260 186 -364 l27 -84 0 124 c0 68 3 144 7 169 4 25 9
101 12 170 4 91 9 131 21 149 12 18 13 26 4 29 -6 2 -11 16 -11 30 2 24 2 24
6 5 2 -13 10 -23 17 -23 7 0 13 -7 13 -15 0 -8 -5 -15 -10 -15 -5 0 -6 -11 -3
-24 4 -16 0 -30 -10 -41 -11 -11 -14 -23 -9 -43 l8 -27 10 35 c6 19 46 150 89
290 74 239 136 473 188 705 94 422 185 702 335 1025 37 80 76 168 86 195 l20
50 -26 -27 c-25 -27 -25 -28 -45 -8 -11 11 -20 25 -20 31 0 6 -6 9 -14 6 -8
-3 -17 1 -20 9 -3 8 0 14 6 14 6 0 9 2 6 5 -3 3 -17 0 -31 -6 -21 -10 -30 -9
-44 2 -15 12 -16 12 -9 -1 4 -8 1 -7 -7 3 -9 10 -18 18 -21 18 -18 -2 -19 0
-6 9 13 8 13 10 -2 10 -9 0 -22 8 -27 18 -10 15 -10 15 -11 -3 0 -12 5 -26 12
-33 9 -9 9 -12 0 -12 -7 0 -12 5 -12 10 0 6 -5 10 -11 10 -5 0 -7 -5 -3 -12 4
-7 3 -8 -4 -4 -7 4 -12 14 -12 22 0 8 5 12 10 9 20 -12 10 8 -16 32 -14 13
-30 21 -35 18 -5 -4 -9 1 -9 9 0 20 -7 20 -27 1 -12 -12 -18 -13 -29 -4 -8 6
-11 15 -9 20 3 4 -4 6 -16 4 -24 -5 -38 -15 -21 -15 7 0 21 -9 32 -20 26 -26
16 -26 -21 1 -34 24 -36 35 -9 44 20 6 19 25 -1 25 -6 0 -8 -4 -5 -9 9 -14
-39 -19 -52 -4 -7 7 -10 13 -6 13 3 0 1 6 -5 13 -6 8 -8 18 -4 23 4 5 2 4 -6
-3 -11 -9 -11 -18 -3 -43 7 -18 7 -28 2 -25 -6 4 -10 12 -10 20 0 7 -8 12 -17
10 -10 -2 -20 -4 -22 -4 -3 -1 4 -8 15 -16 19 -14 19 -14 0 -15 -28 0 -9 -15
22 -16 40 -3 42 -3 42 -15 0 -8 -6 -7 -17 2 -15 13 -15 12 -5 -6 6 -11 29 -30
50 -42 39 -22 40 -22 35 -3 -8 30 6 24 18 -7 7 -16 13 -23 16 -15 6 17 23 15
23 -2 0 -16 26 -46 41 -46 5 0 9 7 9 15 0 17 16 20 25 5 3 -5 1 -10 -4 -10 -6
0 -11 -5 -11 -11 0 -6 9 -8 20 -4 12 4 20 2 20 -5 0 -7 6 -10 14 -7 8 3 17 -1
20 -9 3 -8 12 -14 21 -14 8 0 15 -5 15 -10 0 -6 8 -5 20 2 17 11 22 10 30 -2
24 -39 36 -50 52 -50 16 0 16 -3 -3 -35 -11 -19 -18 -39 -14 -45 4 -6 -44 -63
-111 -131 -111 -112 -119 -118 -127 -97 -5 13 -11 18 -14 11 -5 -12 -46 25
-63 58 -8 14 -17 18 -31 14 -19 -6 -24 6 -20 43 1 6 -3 12 -9 12 -5 0 -10 -5
-10 -10 0 -6 -6 -5 -14 2 -7 7 -11 19 -9 25 3 7 -2 13 -10 13 -8 0 -18 7 -21
16 -3 8 -10 12 -16 9 -5 -3 -10 -1 -10 4 0 6 8 11 18 12 13 0 14 2 2 6 -8 3
-24 13 -35 22 -18 15 -19 15 -6 -1 7 -10 9 -18 3 -18 -5 0 -15 14 -22 30 -7
17 -16 30 -21 30 -5 0 -14 11 -19 25 -6 15 -17 25 -30 25 -19 0 -24 10 -21 37
2 13 -33 36 -41 27 -3 -3 -8 2 -11 11 -4 8 -1 15 5 15 6 0 8 3 5 6 -4 4 -13 1
-22 -6 -14 -12 -20 -5 -17 22 1 3 -5 9 -14 12 -8 3 -13 2 -10 -3 4 -5 -2 -7
-13 -4 -10 2 -18 12 -17 21 0 10 -5 16 -11 15 -7 -2 -13 4 -13 12 0 9 -6 18
-14 21 -8 3 -12 15 -10 27 3 16 1 14 -9 -7 -11 -22 -15 -25 -20 -12 -4 9 -2
16 3 16 6 0 10 5 10 11 0 5 -5 7 -10 4 -6 -3 -13 1 -16 9 -3 9 -10 13 -15 10
-5 -3 -8 10 -8 28 1 23 3 26 6 11 6 -29 18 -30 20 -1 1 13 7 24 13 26 5 2 10
11 11 20 0 12 3 10 9 -5 5 -13 14 -23 20 -23 14 0 12 11 -5 34 -8 11 -15 27
-14 35 0 11 2 12 6 3 2 -6 9 -9 15 -6 5 3 8 0 7 -7 -5 -21 20 -59 38 -59 10 0
14 6 10 19 -3 14 -1 18 9 14 8 -3 14 -13 14 -22 0 -13 2 -13 9 -2 7 11 10 9
16 -8 3 -11 11 -21 16 -21 6 0 7 5 3 12 -12 20 -11 56 2 51 6 -2 11 -10 11
-16 -1 -30 4 -47 13 -47 5 0 7 8 3 18 -6 15 -4 15 16 -2 22 -20 22 -20 15 0
-4 10 -13 23 -21 27 -7 4 -13 13 -13 19 0 7 4 7 13 -1 10 -8 17 -7 25 1 8 8 9
6 6 -9 -3 -12 -1 -24 4 -27 6 -3 8 -15 5 -25 -4 -16 -1 -19 16 -14 26 7 26 8
-1 33 -12 11 -19 23 -15 27 8 8 58 -48 51 -58 -4 -7 19 -19 37 -19 20 0 8 27
-17 39 -15 6 -24 14 -21 18 4 3 13 0 22 -7 11 -9 15 -9 15 -1 0 7 5 9 10 6 6
-4 8 -10 5 -15 -3 -4 4 -10 15 -13 16 -4 18 -2 10 12 -15 29 -38 43 -60 36
-11 -4 -20 -2 -20 4 0 6 -9 11 -19 11 -11 0 -21 6 -23 13 -3 6 -18 13 -34 13
-43 3 -44 3 -44 18 0 9 -9 14 -20 13 -11 -1 -20 -7 -20 -15 0 -7 -5 -10 -10
-7 -6 4 -8 10 -5 15 6 10 -44 64 -52 56 -3 -3 0 -12 7 -21 8 -9 8 -15 2 -15
-6 0 -13 9 -17 19 -3 10 -15 21 -25 24 -11 3 -24 16 -29 29 -9 21 -10 21 -10
3 -1 -12 5 -27 12 -35 10 -12 9 -12 -4 -2 -9 6 -19 9 -22 5 -4 -3 -7 -1 -7 6
0 6 -6 11 -12 10 -44 -5 -58 2 -58 29 0 16 -3 22 -8 15 -12 -19 -60 -24 -66
-7 -3 9 -1 12 4 9 6 -3 10 -1 10 4 0 6 -7 11 -15 11 -8 0 -15 -4 -15 -10 0 -5
-5 -10 -11 -10 -6 0 -9 7 -6 15 4 8 2 17 -3 20 -6 4 -10 -2 -10 -12 0 -14 -5
-12 -25 12 -14 17 -24 24 -25 16 0 -8 -3 -11 -7 -8 -3 4 -12 2 -19 -3 -8 -8
-16 -7 -26 3 -11 11 -16 11 -25 2 -7 -7 -9 -16 -5 -21 4 -4 1 -4 -6 0 -7 4
-11 15 -10 23 2 9 -3 18 -9 20 -7 3 -13 0 -13 -6 0 -6 -4 -11 -10 -11 -5 0
-10 9 -10 20 0 11 -4 20 -10 20 -5 0 -10 -4 -10 -10 0 -5 -4 -10 -9 -10 -5 0
-8 8 -7 18 0 10 -5 16 -13 14 -8 -2 -18 3 -23 10 -7 9 -8 6 -5 -10 5 -21 2
-20 -44 13 -27 19 -49 30 -49 23 0 -6 -6 -3 -14 7 -8 11 -12 24 -9 30 2 5 -2
2 -10 -8 -15 -18 -34 -7 -22 13 3 6 1 10 -4 10 -6 0 -11 -4 -11 -10 0 -20 -29
-9 -53 20 -16 18 -27 25 -30 17 -3 -9 -9 -9 -29 2 -14 7 -32 11 -40 8 -7 -2
-21 3 -31 11 -16 15 -17 14 -11 -4 7 -19 7 -19 -15 0 -21 19 -21 19 -15 1 5
-13 4 -16 -4 -11 -7 4 -12 14 -12 22 0 17 -17 19 -23 2 -4 -10 -7 -10 -18 0
-12 11 -12 14 1 22 11 7 11 10 2 10 -7 0 -16 -9 -20 -20 -8 -20 -8 -20 -30 5
-24 27 -54 37 -32 10 10 -12 10 -15 -4 -15 -9 0 -16 4 -16 10 0 5 -16 9 -35 7
-26 -1 -34 -6 -30 -17 4 -8 -6 -3 -22 10 -15 14 -21 17 -14 7 8 -9 11 -20 8
-24 -4 -3 -1 -13 6 -22 11 -14 10 -14 -5 -3 -10 8 -16 19 -15 25 1 7 -4 11
-10 10 -7 -2 -12 2 -10 8 1 6 -4 14 -12 17 -8 2 -11 1 -8 -4 2 -5 -1 -15 -9
-21 -7 -7 -15 -9 -18 -4 -3 4 -16 7 -28 6 -13 -1 -29 -3 -37 -4 -9 -1 -12 -10
-9 -30 3 -19 0 -27 -8 -24 -6 2 -14 -2 -17 -11 -3 -8 1 -17 10 -20 14 -6 14
-8 -2 -20 -10 -7 -15 -18 -11 -24 3 -6 2 -13 -4 -17 -6 -4 -8 -10 -5 -15 6
-10 -14 -27 -40 -32 -11 -2 -19 -11 -17 -18 2 -10 -3 -9 -17 4 -15 14 -21 15
-21 6 0 -8 -19 4 -42 25 -23 22 -36 31 -28 20 8 -11 20 -23 25 -27 6 -5 4 -8
-4 -8 -8 0 -20 8 -27 18 -10 12 -16 14 -21 5 -6 -8 -13 -8 -27 3 -11 8 -15 14
-10 14 6 0 11 7 11 15 0 17 -14 20 -19 4 -2 -5 -11 -7 -21 -4 -9 4 -15 11 -12
15 3 5 -5 6 -17 4 -13 -2 -17 -2 -10 2 16 8 15 21 -3 28 -8 3 -14 2 -12 -2 4
-13 -8 -14 -36 -3 -16 6 -33 8 -39 5 -6 -4 -8 -3 -5 3 4 6 0 19 -8 29 -8 11
-14 14 -15 7 0 -18 -45 -16 -60 2 -7 9 -19 14 -27 11 -17 -7 -104 34 -97 46 3
4 -2 8 -10 8 -14 0 -20 -11 -17 -32 0 -4 -13 -2 -29 4 -36 12 -40 23 -5 14 33
-8 32 -5 -7 24 -24 17 -30 19 -25 7 4 -11 1 -17 -9 -17 -21 0 -56 19 -50 28 2
4 -7 8 -20 8 -21 2 -23 0 -12 -15 7 -9 1 -6 -13 7 -14 12 -30 22 -37 22 -6 0
-15 7 -20 16 -6 11 -12 13 -16 6 -5 -8 -18 -5 -42 9 -20 11 -33 15 -29 9 3 -5
-1 -10 -10 -10 -8 0 -18 7 -22 16 -5 13 -8 13 -15 2 -6 -9 -11 -9 -14 -2 -3 6
-22 9 -47 7 -38 -4 -40 -3 -23 10 13 10 15 16 8 21 -7 4 -12 1 -12 -6 -1 -8
-5 -7 -14 5 -9 12 -16 14 -21 8 -9 -16 -42 -13 -48 3 -6 14 -56 28 -71 19 -4
-3 -2 -9 5 -14 7 -4 10 -11 7 -14 -4 -4 -15 3 -25 14 -9 12 -23 21 -29 21 -16
0 -11 -29 7 -41 8 -5 10 -9 4 -9 -19 0 -38 18 -31 29 4 6 0 11 -11 11 -15 0
-16 2 -3 10 12 8 10 10 -8 10 -13 0 -21 -4 -17 -9 3 -5 -4 -12 -15 -16 -13 -4
-36 3 -65 19 -49 29 -60 32 -49 14 4 -7 -6 -2 -22 12 -20 18 -24 19 -11 4 19
-23 14 -34 -17 -33 -20 0 -20 1 -2 8 19 7 19 8 -1 13 -17 5 -25 -1 -37 -26 -9
-17 -16 -26 -16 -19 0 7 -10 18 -23 24 -19 11 -20 10 -10 -3 11 -12 8 -17 -12
-28 -14 -8 -23 -20 -21 -27 3 -7 0 -12 -7 -10 -6 1 -13 -8 -15 -20 -4 -28 -46
-32 -61 -5 -10 16 -11 15 -12 -3 -1 -11 -1 -23 0 -27 0 -5 -4 -8 -9 -8 -6 0
-10 9 -10 19 0 16 -6 19 -31 16 -17 -3 -37 -10 -45 -16 -19 -16 -18 1 3 23 19
21 1 25 -20 3 -13 -13 -16 -13 -27 0 -12 14 -7 19 13 16 5 -1 6 2 3 7 -11 18
681 702 834 826 44 35 76 66 73 70 -4 3 0 6 8 6 8 0 76 43 150 95 177 125 185
131 111 93 -35 -18 -72 -37 -82 -43 -11 -5 -20 -13 -20 -18 0 -4 -5 -5 -12 -1
-7 4 -8 3 -4 -4 4 -8 -4 -16 -21 -23 -15 -5 -31 -16 -35 -22 -5 -9 -10 -9 -20
1 -9 9 -9 12 5 12 9 0 17 5 17 11 0 5 5 7 10 4 5 -3 10 0 10 8 0 23 131 102
146 89 5 -4 2 1 -5 10 -11 15 -10 17 8 13 12 -2 21 1 21 6 0 6 5 7 12 3 7 -5
9 -2 5 9 -4 11 -2 14 9 10 8 -3 14 1 14 11 0 10 6 13 15 10 8 -4 15 -1 15 5 0
6 5 11 11 11 5 0 31 9 56 21 34 16 43 23 32 30 -15 9 -7 12 27 10 12 -1 28 5
37 13 9 9 21 16 28 16 7 0 4 6 -7 15 -18 14 -18 14 4 8 13 -3 22 -1 22 6 0 6
9 11 20 11 11 0 20 5 20 10 0 6 6 10 14 10 7 0 27 14 45 30 17 17 31 26 31 21
0 -5 9 -7 20 -4 11 3 17 10 13 16 -3 5 -1 7 4 4 6 -4 36 7 67 24 57 31 72 45
36 36 -11 -3 -18 -1 -15 3 3 4 20 8 37 8 20 -1 58 13 98 37 89 51 184 101 319
171 63 32 109 60 102 62 -6 2 -18 -2 -27 -8 -8 -7 -17 -10 -21 -7 -6 7 60 38
74 36 20 -3 27 2 13 11 -12 8 -10 10 10 11 34 2 41 3 73 17 16 7 33 9 39 6 6
-4 8 -2 4 4 -7 12 30 40 91 68 42 19 60 39 26 28 -15 -5 -15 -4 -3 4 8 6 18 9
22 6 19 -12 95 20 127 54 19 21 29 28 23 15 -17 -32 -16 -32 33 -17 l45 13 0
-25 c0 -14 5 -24 11 -22 6 2 9 7 7 11 -5 11 41 39 52 32 6 -4 8 -11 5 -16 -13
-20 8 -8 27 16 11 14 24 25 29 25 12 0 -9 -41 -30 -58 -13 -11 -12 -11 8 -1
14 6 34 20 45 30 11 11 28 19 38 19 9 0 34 7 55 16 88 38 149 68 164 81 9 8
29 16 45 19 16 2 37 14 47 25 16 20 17 20 17 3 1 -16 4 -15 23 9 13 15 28 27
35 27 6 0 17 10 23 22 12 22 12 22 19 3 7 -19 7 -19 19 3 6 12 18 22 25 22 20
0 33 -225 20 -355 -6 -65 15 -176 33 -182 8 -3 7 16 -3 59 -9 35 -15 70 -15
78 0 8 1 38 2 65 l2 50 15 -63 c8 -35 16 -61 19 -58 3 2 -5 47 -18 98 -19 78
-23 117 -22 245 2 184 15 281 55 391 25 67 36 85 60 98 l31 16 -8 -59 c-9 -73
-7 -273 4 -333 l8 -45 2 55 c2 83 28 254 53 344 16 60 30 90 58 120 20 23 67
78 104 124 38 46 70 81 72 79 2 -2 -4 -28 -14 -58 -37 -106 -47 -189 -46 -374
0 -153 4 -200 27 -315 15 -74 29 -144 33 -155 4 -18 -5 -25 -66 -49 -40 -15
-74 -26 -76 -23 -19 19 -49 404 -40 521 4 50 5 88 2 85 -3 -2 -12 -48 -20
-102 -11 -68 -16 -168 -16 -327 l-1 -230 -33 -25 c-18 -14 -35 -25 -39 -25 -9
0 -66 249 -77 340 -5 46 -11 114 -11 150 -2 48 -4 34 -10 -55 -10 -139 -6
-206 23 -366 20 -112 20 -116 2 -143 -16 -26 -19 -27 -26 -10 -10 24 0 -42 18
-125 31 -137 159 -362 218 -380 17 -5 123 -15 236 -21 214 -12 337 -33 415
-73 22 -11 68 -47 102 -80 l63 -60 94 7 c130 9 196 23 226 46 14 12 32 23 41
26 9 3 25 24 35 45 22 50 78 100 151 137 80 40 127 54 373 112 118 28 238 62
266 74 63 29 188 145 260 242 53 72 114 180 114 204 0 13 -33 44 -70 64 l-25
14 9 114 c10 123 -4 369 -27 468 l-12 55 -14 -45 c-7 -25 -22 -62 -33 -83 -18
-37 -18 -41 -3 -73 23 -48 31 -161 15 -210 -36 -113 -102 -147 -259 -134 -33
3 -47 -1 -57 -14 -7 -10 -18 -15 -24 -11 -7 4 -8 11 -1 18 6 9 -5 19 -41 37
-124 62 -179 147 -159 252 11 62 9 68 -27 68 -20 0 -23 3 -14 12 22 22 12 36
-33 42 -33 5 -45 12 -45 24 0 15 2 15 10 2 9 -13 10 -13 10 0 0 8 -5 22 -10
30 -6 9 -10 10 -10 3 0 -7 -19 0 -44 17 -24 17 -49 30 -55 30 -16 0 -13 18 5
28 13 7 8 14 -30 38 -25 16 -44 34 -43 39 2 6 -9 18 -24 27 -15 9 -33 29 -41
45 -7 15 -22 29 -33 29 -11 1 -26 2 -32 3 -7 1 -13 9 -13 18 0 9 3 14 6 10 7
-7 64 13 64 23 0 4 20 11 44 14 32 5 45 12 49 26 3 11 1 18 -4 14 -5 -3 -9 0
-9 6 0 42 -224 105 -425 118 -55 4 -99 11 -98 15 2 4 65 10 140 12 167 4 279
17 294 32 47 47 -147 122 -326 126 -65 1 -96 6 -100 15 -2 6 1 12 8 12 7 1 82
1 167 0 139 0 364 21 379 36 17 16 -108 76 -219 105 -87 22 -249 43 -285 37
-13 -3 -26 -2 -27 2 -2 4 -43 -5 -93 -21 -92 -29 -130 -33 -53 -6 155 55 163
56 307 41 74 -8 175 -23 225 -34 49 -11 112 -20 139 -20 42 0 175 19 185 26 9
6 -30 62 -57 81 -93 69 -322 123 -526 123 -63 0 -104 4 -97 9 35 22 294 6 450
-28 45 -10 85 -15 87 -11 7 11 -79 50 -110 50 -15 0 -53 7 -84 15 -79 20 -222
32 -262 22 -22 -6 -35 -5 -37 2 -2 6 -10 11 -19 11 -20 0 -221 -66 -304 -101
-38 -15 -69 -26 -69 -23 0 8 140 70 210 91 36 12 90 29 120 38 40 13 83 17
158 16 85 -2 103 0 108 13 10 26 -13 42 -84 59 -83 20 -86 20 -227 -20z m-38
-159 c-3 -3 -12 -4 -19 -1 -8 3 -5 6 6 6 11 1 17 -2 13 -5z m-193 -64 c-17
-11 -46 -22 -65 -26 -31 -5 -30 -4 16 19 60 30 93 35 49 7z m215 -310 c-19
-11 -107 -26 -98 -17 6 7 74 25 99 26 13 0 12 -1 -1 -9z m-877 -23 c15 -24 6
-97 -12 -97 -5 0 -20 21 -35 46 -20 33 -32 45 -45 41 -12 -3 -17 0 -15 12 2 9
4 18 4 20 2 9 96 -10 103 -22z m-163 -291 c13 -1 32 -12 41 -24 17 -21 17 -24
2 -62 -9 -22 -19 -40 -22 -40 -3 0 -23 26 -45 57 -62 89 -62 87 -29 78 16 -4
40 -8 53 -9z m-1070 -158 c-11 -20 -12 -20 -21 -3 -8 12 -7 20 3 26 20 12 30
0 18 -23z m916 -108 c16 0 65 -46 58 -54 -4 -3 8 -6 25 -6 51 0 37 -17 -20
-25 l-53 -8 35 -9 c54 -15 60 -28 12 -28 -26 0 -42 5 -42 12 0 7 -7 2 -16 -10
-8 -12 -19 -22 -23 -22 -11 0 -41 91 -41 123 0 13 -9 36 -21 51 l-21 26 48
-25 c26 -14 52 -25 59 -25z m-152 -87 c31 -46 47 -151 27 -187 -9 -18 -9 -29
-1 -44 6 -11 11 -56 11 -100 0 -66 -3 -82 -20 -97 -17 -15 -22 -16 -36 -4 -9
7 -33 21 -53 31 l-36 18 33 -6 c28 -5 32 -3 32 16 0 11 7 23 15 27 14 5 14 8
1 28 -17 27 -16 43 7 78 11 17 17 45 16 79 0 29 -3 47 -6 39 -4 -10 -7 -10
-13 -1 -4 7 -1 24 6 39 18 34 18 55 -1 91 -21 41 -13 37 18 -7z m-217 -58 c-2
-7 4 -18 14 -25 11 -8 17 -17 14 -22 -8 -12 -22 -1 -38 31 -13 24 -13 28 0 28
8 0 13 -6 10 -12z m-452 -477 c-44 -74 -54 -85 -93 -96 -45 -14 -53 -28 -18
-35 14 -3 9 -5 -15 -6 -21 0 -38 4 -41 12 -4 8 -8 9 -14 1 -11 -14 -83 -16
-110 -2 -18 9 -20 13 -8 24 18 18 69 19 59 2 -4 -7 2 -5 13 5 11 9 23 17 27
17 5 0 26 14 47 31 33 26 42 29 54 19 13 -11 14 -10 9 4 -3 9 -1 16 4 16 6 0
14 -9 17 -21 6 -19 8 -19 33 10 27 30 49 41 36 19z m-2464 -572 c0 -11 -19
-15 -25 -6 -3 5 1 10 9 10 9 0 16 -2 16 -4z m-63 -22 c-3 -3 -12 -4 -19 -1 -8
3 -5 6 6 6 11 1 17 -2 13 -5z m-222 -94 c3 -5 2 -10 -4 -10 -5 0 -13 5 -16 10
-3 6 -2 10 4 10 5 0 13 -4 16 -10z m-560 -269 c3 -5 1 -12 -5 -16 -5 -3 -10
-1 -10 5 0 6 -4 8 -10 5 -5 -3 -10 -1 -10 4 0 13 27 14 35 2z m-58 -43 c-3 -8
-6 -5 -6 6 -1 11 2 17 5 13 3 -3 4 -12 1 -19z m1681 -102 c-7 -8 -15 -12 -17
-11 -5 6 10 25 20 25 5 0 4 -6 -3 -14z m-62 -53 c-14 -14 -26 -21 -26 -14 0 6
9 16 20 23 11 7 20 20 21 28 0 11 2 11 6 2 3 -7 -7 -24 -21 -39z m-635 -916
c-6 -8 -7 -18 -3 -22 4 -5 2 -5 -5 -1 -14 8 -6 36 9 36 7 0 6 -5 -1 -13z
m-180 -46 c-11 -7 -11 -10 0 -14 9 -3 10 -6 2 -6 -18 -1 -27 20 -12 30 7 4 16
6 18 3 3 -3 -1 -9 -8 -13z m554 9 c3 -5 1 -10 -4 -10 -6 0 -11 5 -11 10 0 6 2
10 4 10 3 0 8 -4 11 -10z m321 -5 c9 -8 11 -15 6 -15 -5 0 -15 7 -22 15 -7 8
-9 15 -6 15 4 0 14 -7 22 -15z m-983 -52 c-7 -2 -19 -2 -25 0 -7 3 -2 5 12 5
14 0 19 -2 13 -5z m2152 -23 c3 -5 1 -10 -4 -10 -6 0 -11 5 -11 10 0 6 2 10 4
10 3 0 8 -4 11 -10z m-205 -20 c0 -5 -2 -10 -4 -10 -3 0 -8 5 -11 10 -3 6 -1
10 4 10 6 0 11 -4 11 -10z m40 0 c0 -5 -2 -10 -4 -10 -3 0 -8 5 -11 10 -3 6
-1 10 4 10 6 0 11 -4 11 -10z m61 -36 c23 -25 23 -26 2 -13 -13 7 -25 19 -27
26 -8 19 -2 16 25 -13z m169 -4 c0 -5 -2 -10 -4 -10 -3 0 -8 5 -11 10 -3 6 -1
10 4 10 6 0 11 -4 11 -10z m190 -15 c14 -19 14 -19 -2 -6 -10 7 -18 18 -18 24
0 6 1 8 3 6 1 -2 9 -13 17 -24z m-895 -45 c3 -6 -1 -7 -9 -4 -18 7 -21 14 -7
14 6 0 13 -4 16 -10z m105 -31 c0 -13 -13 -11 -35 5 -18 13 -18 14 8 9 15 -3
27 -9 27 -14z m1261 -99 c5 0 9 -5 9 -11 0 -8 -5 -8 -15 1 -8 7 -14 20 -14 29
1 13 2 13 6 -1 2 -10 9 -18 14 -18z m47 -15 c-3 -3 -9 2 -12 12 -6 14 -5 15 5
6 7 -7 10 -15 7 -18z m-1213 5 c3 -5 1 -10 -4 -10 -6 0 -11 5 -11 10 0 6 2 10
4 10 3 0 8 -4 11 -10z m1559 -156 c3 -8 2 -12 -4 -9 -6 3 -10 10 -10 16 0 14
7 11 14 -7z m391 -154 c3 -5 1 -10 -5 -10 -6 0 -8 -4 -5 -10 3 -5 0 -7 -9 -4
-8 3 -12 12 -9 20 6 16 19 18 28 4z m150 -20 c3 -5 1 -10 -4 -10 -6 0 -11 5
-11 10 0 6 2 10 4 10 3 0 8 -4 11 -10z m-10 -30 c3 -5 1 -10 -4 -10 -6 0 -11
5 -11 10 0 6 2 10 4 10 3 0 8 -4 11 -10z m-15 -51 c0 -6 -4 -7 -10 -4 -5 3
-10 11 -10 16 0 6 5 7 10 4 6 -3 10 -11 10 -16z m-526 -15 c5 -14 4 -15 -9 -4
-17 14 -19 20 -6 20 5 0 12 -7 15 -16z m676 -34 c0 -5 -2 -10 -4 -10 -3 0 -8
5 -11 10 -3 6 -1 10 4 10 6 0 11 -4 11 -10z m-460 -160 c0 -5 -2 -10 -4 -10
-3 0 -8 5 -11 10 -3 6 -1 10 4 10 6 0 11 -4 11 -10z m55 -40 c3 -5 1 -10 -4
-10 -6 0 -11 5 -11 10 0 6 2 10 4 10 3 0 8 -4 11 -10z m25 -53 c0 -5 -4 -5
-10 -2 -5 3 -10 14 -10 23 0 15 2 15 10 2 5 -8 10 -19 10 -23z m130 -81 c0 -5
-7 -3 -15 4 -8 7 -12 17 -9 22 7 10 24 -9 24 -26z m-60 -26 c0 -5 -2 -10 -4
-10 -3 0 -8 5 -11 10 -3 6 -1 10 4 10 6 0 11 -4 11 -10z m100 -16 c0 -8 -4
-12 -10 -9 -5 3 -10 10 -10 16 0 5 5 9 10 9 6 0 10 -7 10 -16z m-357 -1323 c3
-11 -1 -22 -8 -25 -8 -3 -12 2 -10 12 2 9 4 20 4 25 2 13 9 7 14 -12z m34
-283 c-3 -7 -5 -2 -5 12 0 14 2 19 5 13 2 -7 2 -19 0 -25z m-20 -160 c-3 -8
-6 -5 -6 6 -1 11 2 17 5 13 3 -3 4 -12 1 -19z"/>
<path d="M3188 8443 c7 -3 16 -2 19 1 4 3 -2 6 -13 5 -11 0 -14 -3 -6 -6z"/>
<path d="M7722 10135 c-57 -19 -119 -43 -139 -55 -19 -11 -56 -23 -82 -26 -25
-3 -56 -10 -68 -16 -22 -11 -23 -11 -3 -25 19 -13 19 -16 4 -38 -19 -29 -52
-33 -61 -7 -4 9 -11 20 -15 23 -5 3 2 14 17 23 22 15 24 19 11 31 -20 21 -46
19 -71 -5 -11 -11 -39 -22 -60 -26 -22 -3 -45 -10 -51 -15 -7 -5 -34 -10 -60
-11 -27 0 -52 -5 -56 -12 -4 -6 -23 -9 -43 -8 -41 4 -57 -19 -31 -47 9 -10 16
-23 16 -29 0 -7 9 -12 20 -12 11 0 23 -6 26 -13 6 -16 -23 -87 -36 -87 -5 0
-16 -15 -24 -34 -8 -19 -30 -58 -50 -87 -20 -30 -36 -59 -36 -66 0 -7 -7 -13
-16 -13 -20 0 -14 39 26 160 40 123 34 160 -16 100 -14 -16 -30 -28 -34 -25
-9 5 -31 -53 -36 -91 -3 -29 -34 -75 -45 -68 -14 8 -12 2 21 -67 35 -76 50
-147 50 -240 0 -59 3 -71 24 -91 27 -25 69 -150 86 -250 5 -35 10 -114 10
-175 0 -62 4 -113 9 -113 5 0 12 53 16 118 8 135 -4 236 -41 344 -21 64 -32
119 -20 107 3 -2 19 -52 37 -109 45 -151 62 -332 47 -520 -6 -77 -5 -82 7 -54
8 18 26 41 40 53 l27 20 -16 107 c-9 59 -23 118 -31 131 -9 12 -14 23 -11 23
2 0 0 16 -4 36 -5 19 -5 34 0 32 4 -2 42 -44 83 -94 l76 -91 -35 -89 c-35 -89
-54 -121 -54 -94 -1 8 -10 -7 -20 -34 -18 -46 -18 -54 -5 -104 13 -52 25 -77
25 -54 0 7 5 12 10 12 21 0 8 -37 -30 -88 -41 -53 -266 -416 -300 -481 -10
-20 -44 -99 -75 -176 -68 -166 -114 -258 -114 -230 0 19 13 89 25 128 4 11 0
17 -10 17 -9 0 -16 5 -16 10 0 6 10 10 21 10 18 0 19 2 9 15 -10 12 -10 15 3
15 9 0 21 18 31 46 13 38 13 54 4 92 -7 26 -13 48 -14 50 -1 2 -28 -6 -60 -17
-33 -11 -100 -27 -151 -37 -83 -16 -90 -19 -73 -31 11 -8 20 -20 20 -27 0 -8
7 -38 16 -67 8 -30 20 -72 26 -94 6 -22 15 -53 21 -68 8 -24 6 -32 -14 -53
-60 -65 -177 -104 -305 -104 -177 1 -265 56 -266 166 -1 24 -5 44 -10 44 -9 0
-12 -20 -8 -74 l2 -38 -84 4 c-112 6 -268 -8 -351 -33 -37 -11 -72 -17 -77
-14 -5 3 -12 21 -16 40 -5 28 -19 45 -73 85 -86 65 -139 81 -288 87 -115 5
-122 4 -118 -13 14 -67 47 -345 41 -351 -19 -19 -35 35 -54 186 -12 90 -20
167 -18 170 2 3 -49 6 -113 6 l-117 0 9 -64 c4 -35 14 -73 21 -83 21 -29 101
-112 147 -152 l42 -35 -37 6 c-25 4 -36 2 -36 -7 0 -23 -26 8 -75 86 -56 89
-72 130 -80 206 -4 38 -11 58 -22 62 -24 10 -26 2 -8 -39 8 -21 13 -40 11 -43
-8 -8 -43 72 -64 147 -12 40 -23 75 -25 77 -9 10 -73 -44 -81 -68 -15 -42 8
-62 61 -54 38 5 43 3 43 -14 0 -11 4 -28 10 -38 5 -9 34 -80 64 -157 106 -268
179 -427 256 -555 18 -30 50 -88 71 -128 87 -166 143 -231 343 -407 131 -114
228 -208 199 -191 -15 8 -18 -24 -4 -39 9 -11 35 -135 29 -141 -4 -3 -11 22
-40 135 l-14 54 -27 -74 c-15 -41 -27 -80 -27 -86 0 -7 -4 -13 -10 -13 -5 0
-10 -8 -10 -17 0 -9 -7 -25 -16 -35 -13 -13 -17 -34 -15 -80 3 -107 23 -172
104 -336 25 -50 43 -92 41 -95 -3 -2 2 -10 11 -17 8 -7 15 -17 15 -23 0 -17
111 -178 180 -262 167 -200 348 -321 530 -352 52 -9 200 -11 205 -2 3 4 12 6
20 3 8 -3 20 -2 27 2 7 5 15 9 18 9 15 0 146 71 153 82 4 7 13 13 19 13 30 0
218 169 290 260 72 92 211 341 273 490 15 36 43 99 63 140 19 41 36 77 37 80
3 9 17 45 26 68 24 59 5 39 -30 -33 -22 -44 -49 -89 -60 -99 -21 -19 -21 -19
-21 0 0 11 6 26 13 33 10 10 8 15 -7 27 -11 8 -16 14 -11 14 5 0 4 5 -3 12 -7
7 -12 20 -12 30 0 10 -7 18 -16 18 -12 0 -15 6 -10 26 4 14 2 32 -4 40 -7 7
-9 17 -6 22 3 5 -8 8 -23 7 -26 -1 -29 1 -24 24 11 53 9 56 -21 53 -27 -3 -28
-2 -22 31 7 36 6 36 -48 28 -4 0 -6 -8 -2 -16 3 -8 0 -15 -6 -15 -7 0 -6 -5 2
-15 11 -13 11 -18 0 -28 -10 -10 -11 -9 -5 3 5 10 5 12 -2 5 -7 -6 -8 -30 -4
-62 9 -66 -2 -87 -28 -55 -19 22 -38 31 -26 12 3 -5 0 -7 -8 -4 -8 3 -14 13
-13 22 0 10 -5 16 -14 14 -8 -2 -12 -1 -8 3 4 4 0 14 -9 23 -14 14 -14 17 3
24 15 6 12 7 -9 5 -20 -3 -25 -1 -18 7 12 14 10 57 -2 49 -4 -3 -5 12 -1 32 5
27 4 36 -5 31 -7 -5 -11 1 -11 16 0 13 -4 30 -10 38 -5 9 -5 19 2 27 7 9 7 13
-1 13 -9 0 -9 5 -1 20 7 14 8 26 0 39 -15 29 -13 33 13 26 15 -4 18 -4 8 3 -7
5 -11 14 -7 20 3 6 1 14 -5 17 -5 4 -8 13 -5 20 3 8 0 16 -7 19 -9 3 -8 7 2
14 8 6 15 25 17 44 3 28 2 30 -6 11 -13 -31 -17 -29 -16 7 1 16 5 30 10 30 4
0 5 7 2 16 -4 9 -1 23 5 30 6 7 8 18 4 24 -9 15 -47 -19 -38 -34 3 -6 3 -8 0
-5 -4 3 -55 -42 -113 -100 l-106 -106 105 123 c126 149 188 261 164 300 -5 7
-3 14 6 17 8 4 14 24 16 51 1 25 6 56 11 70 6 15 6 24 0 24 -6 0 -9 18 -7 40
2 22 0 40 -5 40 -4 0 -7 5 -6 11 2 6 -3 14 -9 16 -7 3 -13 -3 -13 -12 0 -9 -5
-13 -10 -10 -6 4 -7 12 -4 18 5 9 3 8 -6 0 -11 -10 -11 -16 3 -30 15 -17 14
-18 -16 -18 -27 0 -33 -4 -35 -25 -7 -46 -18 -41 -16 7 1 27 -2 53 -7 59 -11
13 -1 44 13 44 6 0 8 9 5 20 -3 13 7 35 28 62 79 104 127 239 156 436 6 45 16
85 22 89 7 4 8 -6 4 -30 -4 -25 -1 -39 9 -48 17 -14 26 -8 29 24 2 13 10 38
19 55 13 25 15 47 9 104 -6 69 -5 72 11 59 26 -21 33 -3 41 103 4 50 15 112
24 137 10 25 15 53 12 62 -3 9 -6 72 -5 139 1 103 4 129 21 163 12 22 49 117
83 210 41 111 70 177 86 190 35 31 67 113 61 160 l-6 40 15 -27 c13 -25 25
-33 47 -29 4 0 7 -3 7 -8 0 -9 31 -22 62 -26 10 -1 25 -8 34 -16 16 -13 17
-11 12 12 -5 26 -4 26 30 -8 25 -25 37 -31 42 -23 6 9 11 6 20 -9 7 -14 19
-21 33 -20 12 2 32 -2 44 -9 34 -19 36 -15 10 21 -40 53 -66 112 -75 171 -5
31 -6 56 -2 56 4 0 11 -26 15 -57 10 -82 75 -197 127 -224 22 -11 22 -11 7 7
-9 10 -24 35 -33 54 -9 19 -11 26 -4 16 28 -43 82 -96 92 -93 6 2 22 -4 36
-13 14 -10 27 -18 30 -18 5 0 44 -15 98 -38 18 -8 41 -14 52 -14 11 0 37 -6
57 -14 51 -18 125 -34 198 -41 56 -5 58 -5 35 9 -33 20 -19 19 69 -4 52 -14
107 -20 178 -20 91 0 116 -4 211 -35 59 -20 170 -52 247 -71 424 -107 664
-194 1205 -436 85 -38 207 -96 270 -130 132 -69 462 -282 629 -406 l114 -84
-46 -29 c-26 -16 -51 -29 -57 -29 -5 0 -10 -4 -10 -10 0 -5 -11 -10 -24 -10
-14 0 -30 -10 -40 -25 -10 -15 -22 -23 -28 -19 -6 4 -22 -6 -36 -22 -13 -16
-21 -23 -17 -16 5 10 2 13 -11 10 -11 -2 -18 -11 -18 -21 1 -9 -2 -17 -7 -17
-5 0 -9 4 -9 9 0 13 -37 2 -51 -15 -6 -8 -24 -14 -40 -14 -16 0 -29 -4 -29
-10 0 -5 -8 -10 -17 -10 -10 0 -48 -15 -85 -34 -38 -19 -65 -29 -62 -23 3 7
-4 1 -15 -12 -12 -13 -32 -23 -46 -23 -14 0 -28 -4 -31 -9 -4 -8 -307 -160
-326 -165 -5 -1 -9 -2 -10 -4 -4 -2 -39 -10 -59 -12 -9 -1 -15 -7 -13 -13 6
-14 -59 -16 -68 -2 -5 8 -9 6 -13 -4 -4 -11 -15 -14 -35 -11 -40 6 -122 -7
-115 -18 3 -5 -8 -5 -25 0 -17 5 -28 5 -25 0 3 -5 1 -11 -4 -14 -5 -4 -12 -2
-15 2 -4 7 -101 9 -101 2 0 -1 -22 -4 -50 -7 -27 -2 -52 -8 -55 -12 -3 -3 -27
-6 -55 -6 -45 1 -92 -7 -135 -23 -8 -3 -18 -6 -22 -7 -5 -2 -9 -4 -10 -5 -2
-1 -16 -3 -33 -5 -26 -2 -51 -9 -105 -32 -8 -3 -19 -5 -24 -4 -4 1 -14 -4 -22
-10 -8 -6 -14 -9 -14 -5 0 7 -83 -25 -90 -36 -3 -4 -15 -9 -26 -10 -10 -2 -30
-11 -44 -21 -13 -9 -28 -17 -33 -17 -5 0 -21 -9 -37 -20 -15 -11 -30 -17 -34
-13 -3 3 -6 1 -6 -5 0 -7 -3 -11 -7 -11 -33 5 -53 -3 -53 -21 0 -18 -3 -19
-20 -10 -11 6 -20 7 -20 1 0 -5 -7 -8 -16 -7 -9 0 -19 -5 -22 -13 -3 -9 0 -11
8 -6 10 6 12 4 7 -9 -4 -10 -7 -20 -7 -22 0 -3 -6 1 -14 8 -7 7 -11 19 -9 25
3 7 0 13 -6 13 -6 0 -11 -6 -11 -13 0 -8 -10 -13 -22 -13 -13 1 -23 -5 -24
-11 -3 -26 -5 -28 -14 -13 -7 11 -10 11 -10 2 0 -7 -4 -10 -10 -7 -5 3 -10 0
-10 -7 0 -10 -3 -9 -10 2 -8 12 -10 12 -15 -2 -4 -9 -13 -14 -21 -11 -9 3 -14
-1 -14 -12 0 -11 -5 -15 -14 -12 -9 4 -17 -3 -21 -16 -6 -22 -6 -22 -15 -2
l-9 20 -1 -20 c-1 -11 -4 -14 -7 -7 -7 18 -20 14 -26 -9 -5 -17 -9 -19 -26
-10 -24 13 -51 4 -51 -16 0 -12 -3 -13 -14 -4 -16 14 -29 -8 -20 -36 4 -13 0
-11 -12 5 -9 12 -24 22 -33 22 -14 -1 -14 -2 2 -11 9 -5 17 -15 17 -21 0 -6
-7 -5 -17 3 -13 11 -17 11 -20 2 -7 -20 -23 -15 -17 5 3 9 -2 6 -10 -8 -10
-16 -16 -20 -16 -10 0 9 -7 4 -15 -12 -11 -19 -20 -25 -35 -21 -14 4 -20 0
-20 -12 0 -12 -5 -15 -20 -10 -14 5 -20 2 -20 -9 0 -9 -5 -16 -11 -16 -5 0 -7
-5 -3 -12 5 -8 0 -9 -14 -6 -12 4 -20 2 -16 -3 3 -5 -4 -9 -16 -9 -14 0 -19
-4 -14 -12 5 -8 2 -9 -10 -5 -12 5 -22 -2 -35 -24 -10 -17 -20 -26 -22 -20 -4
10 -18 0 -76 -49 -7 -5 -17 -10 -22 -10 -6 0 -15 -9 -21 -20 -6 -11 -14 -19
-18 -16 -4 2 -25 -11 -47 -30 -22 -19 -53 -44 -68 -57 -16 -12 -37 -30 -47
-39 -10 -9 -21 -14 -24 -10 -3 3 -6 0 -6 -7 0 -6 -15 -25 -34 -41 -32 -28 -33
-32 -25 -77 27 -171 96 -372 244 -713 46 -106 176 -428 180 -443 3 -15 7 -26
77 -197 108 -261 240 -507 348 -645 25 -33 68 -91 95 -128 63 -91 143 -177
163 -177 8 0 31 5 49 12 29 10 36 10 43 -2 8 -12 10 -10 10 8 0 23 25 31 33
10 4 -10 6 -10 6 0 1 10 6 10 21 2 11 -6 26 -8 32 -4 6 4 8 3 5 -2 -8 -14 5
-30 32 -39 21 -6 22 -5 10 8 -8 8 -17 13 -21 10 -5 -2 -8 1 -8 6 0 16 26 13
44 -5 9 -8 16 -11 16 -4 0 6 -10 15 -22 21 -14 6 -24 20 -24 34 -2 32 12 32
20 1 5 -19 12 -24 33 -23 25 2 47 27 24 27 -6 0 -11 5 -11 11 0 6 6 9 14 6 10
-4 12 3 9 29 -4 37 3 43 22 18 10 -15 12 -14 10 6 -1 12 -12 31 -26 42 l-24
19 32 -15 32 -16 -10 32 c-11 39 -3 50 10 14 13 -34 23 -34 15 0 -6 24 -5 26
17 19 l24 -7 -22 21 c-28 27 -29 41 -3 41 11 0 20 2 20 5 0 14 -25 55 -34 55
-6 0 -3 5 7 11 13 8 23 7 35 -3 15 -12 16 -11 3 5 -11 14 -11 17 0 17 12 0 12
2 0 9 -10 7 -11 13 -2 30 7 12 9 26 5 32 -4 7 1 7 17 -1 l24 -11 -22 20 c-29
24 -29 35 -2 28 16 -4 18 -3 8 9 -6 7 -8 22 -5 31 6 15 8 15 16 3 8 -13 10
-12 10 3 0 9 -7 17 -15 17 -8 0 -15 7 -15 16 0 8 4 13 9 9 16 -9 23 15 10 32
-11 13 -10 17 6 29 16 12 17 18 8 33 -8 13 -9 21 -1 29 8 8 8 16 -2 27 -11 13
-10 14 4 9 12 -5 16 0 16 19 0 13 7 40 14 59 8 19 13 49 11 67 -3 20 0 29 6
25 11 -7 6 46 -6 65 -3 7 2 11 14 11 25 0 29 37 6 46 -22 9 -18 23 5 17 11 -3
20 0 20 6 0 6 -5 11 -10 11 -7 0 -7 6 0 20 6 11 8 31 4 45 -4 15 -1 32 6 40
11 13 10 14 -4 9 -22 -8 -21 12 2 25 14 8 15 12 5 22 -19 20 -17 63 3 55 13
-5 14 -1 9 25 -6 24 -2 34 19 54 14 13 26 27 26 30 0 3 15 23 34 43 19 20 52
60 73 87 22 28 68 69 104 93 129 87 252 133 588 222 210 55 488 138 536 160
11 5 61 26 110 46 86 35 291 136 422 208 105 57 181 105 363 228 154 103 269
190 597 448 l83 65 0 823 0 822 -22 1 c-13 0 -17 3 -10 6 21 8 13 23 -14 23
-19 0 -25 4 -20 15 5 13 2 14 -15 5 -17 -10 -24 -7 -42 14 -16 19 -28 24 -45
19 -13 -3 -22 -2 -21 3 1 5 1 16 0 24 -1 13 -3 13 -10 1 -7 -11 -14 -10 -40 8
-17 12 -31 18 -31 13 0 -14 -68 3 -89 22 -10 9 -26 13 -40 9 -15 -4 -22 -2
-18 4 8 12 -65 49 -87 44 -4 -1 -13 2 -20 7 -6 5 -38 15 -71 22 -33 7 -68 20
-77 28 -10 8 -24 12 -33 9 -8 -4 -15 -2 -15 3 0 10 -52 40 -71 40 -8 0 -8 -4
1 -15 21 -25 -5 -17 -35 11 -28 26 -52 34 -110 37 -16 1 -41 8 -54 16 -22 12
-61 20 -103 22 -10 0 -18 4 -18 9 0 4 -17 11 -37 15 -21 4 -44 12 -51 18 -14
11 -18 12 -84 23 -21 3 -38 11 -38 16 0 6 -8 8 -18 6 -10 -3 -23 1 -30 9 -7 7
-26 13 -43 13 -16 0 -45 6 -64 14 -22 9 -37 11 -41 5 -4 -6 -11 -5 -21 3 -16
13 -36 19 -70 22 -13 0 -23 4 -23 7 0 12 -59 16 -71 5 -9 -8 -10 -6 -6 7 5 14
2 16 -17 11 -15 -3 -25 -1 -29 9 -3 9 -14 13 -31 10 -18 -4 -23 -10 -18 -22 5
-14 4 -15 -14 -1 -10 8 -22 19 -26 24 -3 5 -14 10 -25 11 -10 1 -25 5 -33 7
-13 5 -43 11 -150 33 -42 8 -94 19 -112 22 -47 8 -54 10 -68 15 -16 7 -115 30
-140 34 -8 1 -49 9 -90 19 -41 9 -86 19 -100 22 -41 8 -124 35 -136 45 -7 5
-16 8 -20 7 -30 -5 -64 3 -64 15 0 13 -35 30 -54 27 -5 -1 -12 2 -15 7 -12 18
-126 56 -336 112 -77 20 -146 30 -215 31 -65 1 -201 44 -302 95 -49 24 -88 41
-88 38 0 -4 -7 0 -16 7 -9 8 -22 14 -28 14 -15 1 -43 12 -96 38 -51 25 -72 42
-63 51 3 3 -3 9 -13 12 -10 4 -35 21 -54 39 -49 44 -107 76 -127 68 -12 -5
-15 -2 -10 10 4 11 1 17 -7 17 -8 0 -21 15 -29 33 -9 18 -27 38 -39 44 -13 6
-53 33 -90 61 -37 27 -84 53 -104 57 -45 8 -69 28 -51 43 22 17 56 23 132 24
l75 0 -25 32 c-14 18 -25 40 -25 49 0 9 -18 29 -40 43 -37 24 -43 26 -84 15
-24 -6 -86 -30 -138 -54 -51 -24 -132 -56 -180 -72 -49 -16 -88 -33 -88 -38 0
-4 -5 -5 -11 -2 -14 9 -69 -14 -69 -29 0 -7 -3 -7 -8 2 -10 16 -63 -1 -107
-34 -27 -20 -69 -29 -115 -25 -22 2 27 41 51 41 10 0 53 16 97 35 43 19 131
48 195 64 64 16 172 53 239 82 72 30 146 54 178 58 l55 6 -52 23 c-69 30 -118
27 -241 -13z m-555 -362 c-2 -31 2 -40 23 -51 l25 -13 -32 4 c-24 2 -30 0 -23
-8 5 -7 6 -15 2 -20 -4 -4 3 -3 15 4 28 14 33 14 33 -2 0 -8 -18 -22 -40 -32
-22 -10 -38 -21 -35 -24 8 -15 -11 -30 -25 -21 -13 8 -13 10 0 10 12 0 16 10
16 38 0 50 23 152 34 152 5 0 9 -17 7 -37z m547 -292 c3 -5 -2 -23 -11 -41
-10 -20 -19 -74 -23 -139 -4 -58 -8 -92 -8 -75 -2 39 -9 45 -38 34 -13 -5 -69
-11 -124 -13 -75 -3 -105 -8 -118 -21 -10 -9 -22 -16 -27 -16 -4 0 6 12 22 28
16 15 53 55 81 88 35 42 67 68 99 82 27 11 66 34 88 51 43 33 51 36 59 22z
m171 -21 c-3 -5 -18 -10 -33 -9 l-27 1 25 8 c35 11 42 11 35 0z m160 -120 c13
-6 15 -9 5 -9 -8 0 -22 4 -30 9 -18 12 -2 12 25 0z m60 -75 c21 -22 48 -55 44
-55 -3 0 -27 23 -54 52 -40 42 -32 44 10 3z m128 -102 c-15 -5 -73 24 -73 37
0 6 19 1 43 -11 23 -12 37 -24 30 -26z m1252 -13 c3 -5 2 -10 -4 -10 -5 0 -13
5 -16 10 -3 6 -2 10 4 10 5 0 13 -4 16 -10z m-1167 -85 c-6 -6 -78 66 -78 77
0 4 19 -10 41 -32 23 -22 40 -43 37 -45z m-1088 -125 c0 -10 5 -20 11 -22 12
-4 2 -58 -11 -58 -10 0 -31 91 -24 102 8 13 24 -1 24 -22z m1247 -46 c26 -14
81 -32 122 -40 41 -8 80 -19 87 -24 6 -6 33 -11 58 -12 26 0 45 -3 42 -5 -10
-11 -77 -20 -82 -12 -3 5 -27 9 -53 9 -45 0 -167 40 -156 51 2 3 -13 16 -35
28 -36 20 -48 31 -36 31 3 0 27 -12 53 -26z m-1400 -61 c-3 -10 -5 -2 -5 17 0
19 2 27 5 18 2 -10 2 -26 0 -35z m1453 -23 c19 -4 28 -8 20 -9 -13 -1 -13 -2
0 -11 10 -7 -5 -10 -50 -9 -49 0 -59 2 -42 9 27 11 29 20 4 13 -13 -3 -19 1
-19 12 0 13 6 15 26 9 14 -4 42 -10 61 -14z m121 -36 l34 -15 -34 5 c-18 4
-44 6 -57 6 -13 0 -24 5 -24 10 0 15 43 12 81 -6z m-1574 -36 c-3 -8 -6 -5 -6
6 -1 11 2 17 5 13 3 -3 4 -12 1 -19z m4603 -182 c0 -3 -4 -8 -10 -11 -5 -3
-10 -1 -10 4 0 6 5 11 10 11 6 0 10 -2 10 -4z m100 -132 c0 -8 -4 -12 -10 -9
-5 3 -10 10 -10 16 0 5 5 9 10 9 6 0 10 -7 10 -16z m125 6 c3 -5 1 -10 -4 -10
-6 0 -11 5 -11 10 0 6 2 10 4 10 3 0 8 -4 11 -10z m200 -30 c3 -5 1 -10 -4
-10 -6 0 -11 5 -11 10 0 6 2 10 4 10 3 0 8 -4 11 -10z m-4965 -66 c0 -7 -4
-16 -10 -19 -5 -3 -10 -4 -10 -1 0 2 -2 11 -5 19 -4 8 0 14 10 14 8 0 15 -6
15 -13z m-100 -377 c0 -5 -7 -4 -15 3 -8 7 -15 20 -15 29 1 13 3 13 15 -3 8
-11 15 -24 15 -29z m-446 -466 c7 -11 -30 -54 -41 -48 -5 3 -10 -2 -11 -11 -1
-9 -3 -30 -4 -47 -2 -23 -11 -34 -41 -48 -42 -21 -201 -51 -223 -43 -23 9 -16
26 12 26 62 0 119 23 164 67 24 23 48 43 52 43 5 0 23 16 41 35 33 36 42 41
51 26z m-1257 -83 c-3 -7 -5 -2 -5 12 0 14 2 19 5 13 2 -7 2 -19 0 -25z m-74
-91 c-8 -12 -33 20 -33 42 1 12 6 10 20 -8 11 -12 17 -28 13 -34z m-210 -104
c48 -9 84 -20 80 -24 -5 -4 -39 -13 -78 -19 -76 -12 -155 -6 -155 13 0 7 -3
22 -6 35 -8 27 -11 27 159 -5z m1712 -133 c3 -5 1 -10 -4 -10 -6 0 -11 5 -11
10 0 6 2 10 4 10 3 0 8 -4 11 -10z m15 -70 c0 -5 -4 -10 -10 -10 -5 0 -10 5
-10 10 0 6 5 10 10 10 6 0 10 -4 10 -10z m-13 -36 c-3 -3 -12 -4 -19 -1 -8 3
-5 6 6 6 11 1 17 -2 13 -5z m1803 -409 c0 -8 -4 -15 -10 -15 -5 0 -7 7 -4 15
4 8 8 15 10 15 2 0 4 -7 4 -15z m-90 -106 c0 -6 -4 -7 -10 -4 -5 3 -10 11 -10
16 0 6 5 7 10 4 6 -3 10 -11 10 -16z m-1625 -39 c-3 -5 -12 -10 -18 -10 -7 0
-6 4 3 10 19 12 23 12 15 0z m-27 -35 c-3 -3 -9 2 -12 12 -6 14 -5 15 5 6 7
-7 10 -15 7 -18z m-278 -52 c-29 -32 -84 -88 -122 -125 -38 -38 -65 -68 -61
-68 11 0 -20 -20 -31 -20 -5 0 40 51 101 113 61 61 122 124 134 139 13 15 26
25 28 22 2 -2 -20 -30 -49 -61z m330 -202 c0 -6 -4 -13 -10 -16 -5 -3 -10 1
-10 9 0 9 5 16 10 16 6 0 10 -4 10 -9z m290 -125 c0 -11 -19 -15 -25 -6 -3 5
1 10 9 10 9 0 16 -2 16 -4z m50 -140 c0 -11 -19 -15 -25 -6 -3 5 1 10 9 10 9
0 16 -2 16 -4z m2200 -1096 c0 -5 -2 -10 -4 -10 -3 0 -8 5 -11 10 -3 6 -1 10
4 10 6 0 11 -4 11 -10z m-115 -470 c3 -5 1 -10 -4 -10 -6 0 -11 5 -11 10 0 6
2 10 4 10 3 0 8 -4 11 -10z m-20 -48 c-3 -3 -11 0 -18 7 -9 10 -8 11 6 5 10
-3 15 -9 12 -12z m-4 -69 c13 -17 13 -17 -6 -3 -11 8 -22 16 -24 17 -2 2 0 3
6 3 6 0 17 -8 24 -17z m-1 -33 c0 -5 -2 -10 -4 -10 -3 0 -8 5 -11 10 -3 6 -1
10 4 10 6 0 11 -4 11 -10z m0 -55 c0 -8 -4 -15 -9 -15 -5 0 -11 7 -15 15 -3 9
0 15 9 15 8 0 15 -7 15 -15z m-10 -35 c0 -5 -2 -10 -4 -10 -3 0 -8 5 -11 10
-3 6 -1 10 4 10 6 0 11 -4 11 -10z m-120 -314 c0 -6 -7 -2 -15 8 -8 11 -15 25
-15 30 0 6 7 2 15 -8 8 -11 15 -25 15 -30z m-70 -7 c0 -6 -4 -7 -10 -4 -5 3
-10 11 -10 16 0 6 5 7 10 4 6 -3 10 -11 10 -16z"/>
<path d="M7047 10066 c-18 -26 -24 -33 -89 -102 l-47 -49 30 -2 c24 -2 30 1
27 15 -7 32 53 79 118 91 83 16 124 29 99 30 -11 1 -31 10 -45 21 -35 27 -74
26 -93 -4z"/>
<path d="M7375 10080 c3 -5 8 -10 11 -10 2 0 4 5 4 10 0 6 -5 10 -11 10 -5 0
-7 -4 -4 -10z"/>
<path d="M8120 9900 c0 -5 9 -10 21 -10 11 0 17 5 14 10 -3 6 -13 10 -21 10
-8 0 -14 -4 -14 -10z"/>
<path d="M6859 9873 c-13 -16 -12 -17 4 -4 9 7 17 15 17 17 0 8 -8 3 -21 -13z"/>
<path d="M6869 9853 c-13 -16 -12 -17 4 -4 9 7 17 15 17 17 0 8 -8 3 -21 -13z"/>
<path d="M4290 9846 l-34 -13 34 -6 c32 -7 49 2 50 26 0 9 -8 8 -50 -7z"/>
<path d="M4853 9786 c-45 -52 -121 -191 -110 -202 15 -16 67 54 111 149 25 53
44 97 42 97 -3 0 -22 -20 -43 -44z"/>
<path d="M6500 8820 c0 -24 44 -51 94 -58 38 -5 40 -4 24 11 -9 10 -28 17 -41
17 -16 0 -26 7 -30 18 -6 26 -47 36 -47 12z"/>
<path d="M3575 8420 c-11 -5 -31 -9 -45 -9 -29 -1 -134 -51 -170 -81 l-25 -20
55 21 c30 12 67 26 82 31 14 5 29 16 32 24 3 8 10 14 16 14 6 0 8 -4 5 -10 -3
-5 3 -10 14 -10 11 0 23 5 26 10 4 6 21 17 38 24 23 11 26 14 12 14 -11 1 -29
-3 -40 -8z"/>
<path d="M3678 8413 c7 -3 16 -2 19 1 4 3 -2 6 -13 5 -11 0 -14 -3 -6 -6z"/>
<path d="M6700 7879 c0 -6 5 -20 12 -32 11 -21 11 -21 19 -2 13 33 10 45 -11
45 -11 0 -20 -5 -20 -11z"/>
<path d="M2174 7684 c-18 -14 -18 -15 4 -4 12 6 22 13 22 15 0 8 -5 6 -26 -11z"/>
<path d="M2119 7649 l-24 -20 28 17 c15 9 27 18 27 20 0 8 -8 4 -31 -17z"/>
<path d="M2076 7623 c-6 -14 -5 -15 5 -6 7 7 10 15 7 18 -3 3 -9 -2 -12 -12z"/>
<path d="M7010 7558 c0 -20 1 -21 20 -3 11 10 20 20 20 22 0 1 -9 3 -20 3 -14
0 -20 -7 -20 -22z"/>
<path d="M1295 6550 c3 -5 13 -10 21 -10 8 0 12 5 9 10 -3 6 -13 10 -21 10 -8
0 -12 -4 -9 -10z"/>
<path d="M2160 6339 c0 -5 5 -7 10 -4 6 3 10 8 10 11 0 2 -4 4 -10 4 -5 0 -10
-5 -10 -11z"/>
<path d="M2680 6330 c0 -5 5 -10 10 -10 6 0 10 5 10 10 0 6 -4 10 -10 10 -5 0
-10 -4 -10 -10z"/>
<path d="M2210 6326 c0 -2 7 -7 16 -10 8 -3 12 -2 9 4 -6 10 -25 14 -25 6z"/>
<path d="M3304 6301 c23 -25 22 -25 30 -4 4 10 4 14 0 11 -4 -4 -16 -2 -28 4
-21 11 -21 11 -2 -11z"/>
<path d="M2646 6287 c3 -10 9 -15 12 -12 3 3 0 11 -7 18 -10 9 -11 8 -5 -6z"/>
<path d="M7532 6228 c14 -74 -22 -300 -42 -268 -4 6 -19 -24 -35 -67 -85 -241
-350 -682 -513 -855 -130 -137 -322 -258 -482 -304 -99 -28 -290 -26 -395 4
-155 44 -276 120 -409 256 -183 187 -369 492 -427 701 -24 83 -31 226 -16 294
l7 35 -25 -24 c-23 -22 -25 -22 -20 -5 6 17 4 17 -14 -4 -12 -13 -21 -20 -21
-15 0 4 -4 4 -10 -2 -5 -5 -18 -52 -29 -104 -29 -137 -59 -223 -151 -425 -121
-268 -198 -482 -405 -1130 -43 -132 -129 -388 -192 -570 -125 -362 -169 -517
-182 -641 -12 -115 3 -389 23 -436 9 -21 16 -59 16 -86 0 -27 11 -80 24 -118
12 -38 26 -91 30 -119 5 -27 19 -77 32 -109 15 -37 24 -80 24 -112 0 -41 5
-59 25 -82 14 -17 32 -49 40 -72 54 -154 211 -341 458 -547 22 -19 58 -60 80
-91 22 -31 57 -75 78 -97 42 -45 64 -81 107 -181 30 -68 53 -196 82 -459 5
-49 14 -104 19 -121 13 -47 69 -352 76 -417 l6 -57 506 0 505 0 -7 128 c-7
147 -22 346 -31 415 -7 48 -7 48 19 41 15 -3 95 -1 179 5 84 6 263 16 398 21
135 6 254 11 265 13 18 2 20 -5 22 -53 2 -30 17 -171 35 -312 l33 -258 515 0
516 0 -8 83 c-4 45 -10 107 -13 137 -3 30 -10 125 -15 210 -5 85 -12 171 -15
190 -14 98 -26 314 -27 466 0 143 3 183 21 246 26 96 89 230 103 222 6 -4 8
-2 4 4 -6 10 57 127 75 137 4 3 10 1 14 -5 3 -5 2 -10 -4 -10 -8 0 -8 -9 -1
-40 0 -3 7 4 15 14 13 17 13 22 -1 37 -14 16 -13 21 22 68 37 49 39 50 58 33
21 -17 21 -17 2 5 -18 22 -18 23 49 108 38 49 71 82 77 79 6 -4 8 -3 5 3 -7
12 62 105 73 98 3 -2 7 1 7 8 0 13 71 117 80 117 2 0 2 -4 -2 -9 -3 -5 0 -13
6 -17 7 -4 9 -3 5 4 -3 6 -2 13 3 17 6 3 8 11 5 18 -2 7 7 30 21 51 14 20 25
39 25 41 0 2 20 47 45 100 24 52 51 117 59 143 8 26 22 65 30 87 22 57 21 98
-1 93 -10 -2 -17 -10 -15 -17 1 -7 -3 -11 -10 -9 -17 6 -17 34 0 31 6 -2 12 1
12 7 0 5 6 7 14 4 11 -4 16 5 21 33 3 21 14 64 23 95 17 53 19 133 3 124 -3
-2 -15 5 -25 15 -11 11 -14 19 -8 19 6 0 14 -4 17 -10 3 -5 12 -10 19 -10 13
0 37 118 33 165 -3 36 27 144 40 147 7 2 -26 35 -73 73 -161 131 -233 218
-439 530 -242 366 -270 414 -424 725 -224 452 -383 796 -435 940 -51 139 -96
347 -103 468 -6 114 -14 136 -20 59 -9 -100 -44 -324 -55 -344 -18 -35 -27
-27 -18 15 5 20 11 64 15 97 4 33 11 83 17 110 13 67 18 236 6 258 -5 9 -15
17 -22 17 -11 0 -11 -11 -4 -52z m268 -1157 c11 -22 14 -150 4 -200 -8 -40
-22 -47 -107 -54 l-68 -6 7 127 c7 148 10 152 96 152 46 0 59 -4 68 -19z
m-2677 -22 c23 -12 49 -28 59 -36 11 -10 18 -11 23 -3 10 16 132 2 182 -22 56
-26 83 -71 83 -137 0 -61 -17 -98 -62 -136 -47 -40 -75 -47 -151 -40 -83 9
-119 35 -144 105 -16 46 -19 48 -60 53 -51 5 -78 27 -93 72 -14 42 0 78 48
128 42 43 57 45 115 16z m2482 -10 c8 -11 -40 -89 -54 -89 -5 0 -12 10 -14 23
-3 14 -5 10 -6 -14 -1 -26 -9 -43 -33 -65 -32 -28 -32 -28 -9 -1 14 15 27 45
30 70 4 28 11 42 21 42 8 0 14 -6 13 -12 -4 -20 7 -15 27 9 25 31 17 38 -39
38 -65 0 -75 -15 -78 -109 -1 -42 -2 -79 -3 -83 0 -5 -5 -8 -11 -8 -8 0 -9 23
-4 78 7 76 18 110 39 124 17 12 114 9 121 -3z m-165 -56 c0 -20 -8 -45 -17
-56 -13 -15 -15 -21 -5 -24 7 -3 12 -25 12 -59 0 -49 -2 -55 -26 -64 -42 -16
-46 -13 -38 35 4 30 3 45 -5 45 -6 0 -11 -17 -11 -37 0 -48 -8 -58 -47 -66
-31 -6 -33 -5 -33 21 0 16 5 55 10 88 6 32 13 73 15 90 5 29 9 32 55 38 27 4
52 11 55 16 15 24 35 9 35 -27z m185 -54 c-8 -95 -18 -123 -52 -138 -36 -17
-67 -13 -97 10 l-27 22 38 39 38 39 6 -33 c6 -32 6 -31 8 10 1 34 9 53 38 88
21 24 41 44 46 44 6 0 7 -33 2 -81z m-351 14 c-4 -29 -15 -54 -28 -65 -19 -16
-20 -17 -3 -18 17 0 18 -6 12 -52 -4 -29 -9 -55 -10 -56 -2 -2 -23 -8 -47 -13
-24 -5 -51 -12 -61 -15 -15 -5 -18 -1 -15 23 2 22 9 29 31 31 21 3 27 9 27 28
0 18 -5 24 -21 24 -31 0 -22 42 11 50 34 8 40 40 7 40 -20 0 -23 4 -19 25 4
21 10 25 41 25 20 0 43 5 51 10 27 17 31 11 24 -37z m-134 1 c0 -5 -18 -47
-40 -93 -22 -45 -40 -85 -40 -88 0 -3 12 -2 26 1 24 6 26 5 20 -16 -3 -13 -6
-26 -6 -30 0 -5 -15 -8 -32 -8 -18 0 -50 -4 -70 -9 -35 -8 -38 -7 -38 13 0 11
18 55 40 96 22 41 40 78 40 82 0 4 -8 9 -19 13 -12 4 -17 12 -14 28 4 20 10
22 69 22 38 0 64 -4 64 -11z m-2057 -220 c41 -21 85 -62 103 -96 33 -63 2
-154 -70 -206 -60 -43 -91 -54 -160 -53 -46 0 -67 5 -98 26 -44 29 -77 90 -78
141 0 77 64 155 152 185 66 23 110 24 151 3z m158 -347 c-13 -13 -15 31 -3 60
5 14 8 10 10 -16 2 -18 -1 -38 -7 -44z m79 63 c0 -5 -4 -10 -10 -10 -5 0 -10
-13 -10 -30 0 -16 -5 -30 -11 -30 -7 0 -10 12 -7 30 3 17 1 30 -4 30 -4 0 -8
5 -8 10 0 6 11 10 25 10 14 0 25 -4 25 -10z m32 -31 c-3 -24 -1 -30 9 -27 8 2
15 17 17 31 2 15 8 27 13 27 20 0 4 -66 -19 -75 -23 -9 -41 16 -35 48 7 38 21
34 15 -4z m3256 -628 c42 -52 104 -129 136 -170 33 -42 88 -109 124 -148 35
-40 59 -73 52 -73 -8 0 -11 -3 -7 -6 3 -3 2 -17 -3 -30 -7 -18 -6 -24 5 -24 9
0 12 6 9 15 -8 19 15 19 40 0 11 -8 31 -15 45 -15 25 0 60 -16 51 -22 -36 -26
-140 -32 -175 -9 -19 12 -19 12 4 7 22 -4 22 -4 5 12 -9 9 -29 18 -43 19 l-26
1 25 -14 c14 -7 21 -13 16 -14 -5 0 -1 -9 9 -20 18 -20 18 -20 -14 -14 -32 7
-33 6 -29 -27 2 -23 -1 -33 -9 -31 -19 3 -16 -4 12 -32 15 -15 23 -32 20 -45
-2 -12 0 -19 4 -16 10 5 21 -18 21 -41 0 -9 -4 -12 -10 -9 -5 3 -10 -1 -10 -9
0 -10 6 -13 15 -10 8 4 15 1 15 -6 0 -6 4 -9 9 -5 5 3 13 0 17 -6 4 -8 3 -9
-4 -5 -7 4 -12 2 -12 -3 0 -6 5 -11 12 -11 6 0 9 -3 5 -6 -3 -3 -22 6 -41 21
-30 23 -36 25 -36 10 0 -9 -10 -25 -22 -36 l-23 -19 28 12 c24 10 30 9 45 -7
16 -18 16 -18 0 -6 -12 9 -18 10 -18 2 0 -13 -49 -12 -67 2 -9 7 -13 4 -13 -8
0 -16 -1 -16 -26 0 -31 20 -64 27 -64 14 0 -6 -4 -8 -8 -5 -4 2 -8 34 -7 70 0
36 -1 66 -2 66 0 0 -10 -14 -21 -32 l-20 -31 2 41 c1 22 -1 39 -5 36 -4 -2
-11 1 -15 7 -4 7 -3 9 3 6 6 -4 13 2 16 13 4 14 10 18 23 13 12 -4 15 -3 10 6
-5 7 -14 10 -21 7 -7 -2 -21 2 -32 10 -10 9 -12 12 -4 8 11 -5 13 -3 8 10 -4
10 -7 22 -7 28 0 6 -6 6 -15 -2 -26 -21 -16 1 11 27 23 21 25 28 15 49 -6 13
-18 24 -26 24 -13 0 -14 4 -4 22 11 21 12 21 25 3 12 -16 14 -16 14 -3 0 9 -4
19 -10 23 -5 3 -7 12 -3 20 3 8 2 15 -1 15 -4 0 -11 -11 -16 -25 -5 -14 -15
-25 -21 -25 -8 0 -8 4 1 15 12 15 4 21 -23 16 -5 -1 -7 4 -4 11 2 7 -5 24 -17
37 l-21 24 27 -19 c15 -10 28 -25 28 -31 0 -7 5 -13 11 -13 5 0 8 4 5 9 -4 5
-1 11 6 13 7 3 3 12 -11 25 -13 12 -20 26 -17 32 3 5 -5 22 -19 38 l-24 28 -1
-25 c-1 -23 -2 -23 -9 -5 -5 13 -3 24 5 30 10 8 10 17 -1 50 -11 30 -11 43 -2
55 7 10 4 9 -9 -3 -19 -16 -22 -16 -27 -2 -4 8 -2 15 3 15 14 0 12 14 -6 36
-13 16 -15 16 -10 2 5 -16 -4 -23 -26 -19 -5 0 -9 -14 -9 -31 -1 -19 -3 -25
-6 -15 -7 26 6 69 17 62 16 -10 11 11 -6 26 -14 11 -14 13 0 21 9 5 16 14 16
21 0 8 -3 7 -9 -2 -7 -11 -11 -9 -21 9 -7 12 -8 25 -4 29 5 3 14 13 19 22 6 9
21 32 35 51 l24 36 24 -26 c13 -15 58 -69 100 -121z m-1762 -236 c27 -308 27
-305 -23 -305 -16 0 -23 6 -23 18 0 26 -39 490 -44 528 -4 28 -1 33 27 41 18
5 33 9 35 8 1 -1 14 -131 28 -290z m946 258 c26 -23 34 -44 69 -188 16 -66 37
-136 45 -157 19 -42 13 -58 -21 -58 -15 0 -26 7 -30 21 -7 21 -7 21 -29 -4
-34 -41 -60 -50 -99 -34 -39 17 -63 51 -76 108 -16 69 3 107 71 143 61 33 68
47 42 84 -22 32 -77 28 -82 -5 -3 -19 -10 -23 -38 -23 -32 0 -34 2 -34 34 0
40 38 92 73 99 37 8 88 -1 109 -20z m-253 -35 c0 -13 -10 -110 -22 -217 l-22
-195 -27 -7 c-26 -7 -29 -3 -91 114 -73 138 -140 278 -135 282 2 1 18 5 36 8
31 6 34 5 52 -38 44 -104 103 -225 107 -221 3 2 11 66 18 142 14 142 19 154
63 154 16 0 22 -6 21 -22z m-1181 -103 c-2 -2 -16 -5 -33 -7 -30 -3 -30 -2
-33 49 l-3 52 33 3 c33 3 33 3 36 -46 2 -26 2 -50 0 -51z m2037 77 c2 -26 -11
-20 -18 8 -3 13 -1 20 6 17 6 -2 11 -13 12 -25z m-2740 -70 c-5 -33 -11 -41
-33 -45 -15 -3 -29 -4 -32 -2 -3 2 -4 24 -2 49 4 40 7 45 30 48 38 5 45 -4 37
-50z m-475 24 c0 -14 -4 -36 -9 -49 -9 -22 -17 -25 -85 -32 -69 -6 -76 -9 -76
-28 0 -12 -3 -46 -7 -75 l-6 -53 77 7 76 7 0 -50 0 -51 -69 -4 c-39 -2 -73 -7
-78 -11 -4 -5 -9 -54 -11 -110 -4 -141 -6 -147 -44 -147 l-31 0 8 128 c4 70
11 204 14 297 l6 170 105 11 c58 6 111 12 118 12 7 1 12 -9 12 -22z m1965 -8
c50 -43 77 -101 83 -175 6 -84 -12 -146 -58 -194 -32 -34 -43 -39 -83 -39 -91
0 -148 81 -154 220 -4 74 -1 91 19 130 46 90 129 115 193 58z m-494 -77 c36
-36 37 -64 3 -80 -22 -10 -28 -8 -43 11 -16 19 -23 20 -52 12 -27 -8 -34 -15
-34 -34 0 -21 7 -27 45 -38 117 -35 133 -52 133 -140 0 -71 -21 -114 -67 -136
-67 -32 -127 -11 -161 54 -20 39 -19 45 13 56 23 9 31 6 54 -19 21 -22 33 -27
50 -22 36 12 49 26 46 53 -3 22 -12 28 -68 43 -87 24 -110 50 -110 128 0 66
22 104 74 127 50 22 84 17 117 -15z m1844 -22 c0 -8 -8 -13 -17 -13 -20 2 -24
-11 -8 -19 6 -3 5 -4 -2 -3 -7 2 -13 9 -13 17 0 8 6 13 14 11 9 -2 11 3 7 13
-4 11 -2 15 6 13 7 -3 13 -11 13 -19z m-2121 -51 c17 -186 26 -349 21 -358 -3
-5 -19 -10 -34 -10 l-29 0 -7 96 c-17 229 -22 319 -18 327 2 4 17 7 33 7 28 0
29 -2 34 -62z m-455 28 c7 -9 9 -29 5 -55 -6 -40 -8 -42 -35 -36 -23 5 -31 1
-45 -20 -15 -23 -16 -44 -11 -170 l6 -143 -35 -4 c-19 -2 -37 -2 -39 1 -1 3
-4 99 -4 212 -2 206 -2 206 20 212 30 8 39 1 39 -31 1 -25 1 -26 12 -7 29 54
63 70 87 41z m-254 -268 l8 -158 -35 0 -35 0 -6 128 c-4 70 -7 164 -7 209 l0
82 28 3 c26 3 27 1 34 -52 3 -30 9 -126 13 -212z m-209 238 c27 -23 28 -26 36
-177 5 -85 13 -167 18 -183 12 -35 12 -34 -28 -42 -28 -6 -32 -4 -32 15 0 27
-6 27 -42 -5 -41 -33 -93 -30 -121 7 -27 37 -33 106 -13 152 13 32 26 43 81
68 59 26 65 32 65 59 0 51 -66 65 -90 19 -11 -20 -36 -24 -59 -10 -12 8 -12
14 -1 40 32 78 128 107 186 57z m740 5 c4 -3 26 -156 34 -233 5 -53 13 -105
19 -116 13 -24 5 -32 -32 -32 -20 0 -30 6 -34 20 -5 19 -7 18 -40 -10 -76 -67
-153 -16 -153 102 0 70 17 93 96 129 69 30 77 46 44 79 -27 27 -46 25 -78 -7
-15 -15 -34 -26 -42 -25 -38 7 -40 10 -28 44 20 59 23 60 122 54 50 -3 91 -5
92 -5z m2414 -232 c0 -3 -11 -4 -25 -1 -24 4 -24 5 -8 17 17 13 32 5 33 -16z
m-60 11 c0 -5 -2 -10 -4 -10 -3 0 -8 5 -11 10 -3 6 -1 10 4 10 6 0 11 -4 11
-10z m322 -64 c3 2 8 -2 11 -10 3 -8 0 -20 -8 -26 -8 -6 -11 -18 -8 -26 7 -19
-11 -18 -27 1 -9 11 -9 15 -1 15 8 0 10 11 7 31 -3 23 -2 28 8 20 7 -6 15 -8
18 -5z m156 -51 c0 -42 -18 -56 -18 -14 0 11 -5 17 -10 14 -6 -3 -18 1 -27 11
-16 15 -15 16 17 9 28 -6 32 -5 27 9 -4 9 -2 16 3 16 5 0 9 -20 8 -45z m-76
-25 c4 0 8 5 8 11 0 8 4 9 13 0 8 -6 17 -9 20 -6 4 3 5 2 2 -2 -3 -4 -23 -8
-45 -9 -21 -1 -44 -5 -49 -9 -14 -8 -14 -35 0 -35 6 0 9 7 5 15 -3 8 -1 15 5
15 7 0 8 -12 4 -31 -5 -23 -4 -30 5 -24 8 5 11 1 8 -10 -1 -10 -10 -20 -18
-23 -8 -3 -12 -1 -7 3 4 5 0 16 -8 25 -19 21 -31 80 -17 80 6 0 9 6 6 13 -3 8
2 14 10 14 8 0 13 -4 10 -8 -2 -4 1 -11 7 -15 8 -4 9 -3 5 4 -4 7 -3 12 3 12
6 0 9 6 8 13 -2 6 1 2 7 -10 5 -13 13 -23 18 -23z m50 -32 c-6 -6 -24 -7 -44
-3 -27 7 -30 9 -14 15 27 9 70 0 58 -12z m-395 -100 c-3 -8 -6 -5 -6 6 -1 11
2 17 5 13 3 -3 4 -12 1 -19z m-1455 -88 c4 -35 6 -65 5 -67 -2 -1 -58 -11
-125 -22 -68 -11 -126 -23 -131 -25 -9 -6 5 -125 19 -162 9 -22 14 -24 62 -19
29 2 82 7 118 10 l66 5 10 -64 9 -65 -45 -5 c-25 -3 -80 -8 -123 -12 l-78 -6
6 -91 c4 -51 8 -99 11 -107 3 -12 27 -15 141 -15 l138 0 5 -58 c3 -32 3 -60 0
-62 -3 -1 -88 -4 -190 -6 l-185 -4 -12 185 c-6 102 -21 246 -32 320 -32 207
-41 274 -37 277 2 2 75 15 162 29 88 13 164 26 169 28 23 9 30 -4 37 -64z
m1801 34 c-7 -20 -10 -18 -15 11 -4 20 -2 23 8 14 7 -6 10 -17 7 -25z m-313 0
c0 -2 -7 -4 -15 -4 -8 0 -15 4 -15 10 0 5 7 7 15 4 8 -4 15 -8 15 -10z m105
-32 c-6 -6 -34 11 -39 24 -4 11 0 10 18 -3 13 -10 23 -19 21 -21z m175 24 c0
-11 -19 -15 -25 -6 -3 5 1 10 9 10 9 0 16 -2 16 -4z m-255 -16 c3 -5 1 -10 -4
-10 -6 0 -11 5 -11 10 0 6 2 10 4 10 3 0 8 -4 11 -10z m178 -7 c-19 -7 3 -44
22 -37 11 5 13 2 9 -10 -5 -12 -10 -14 -19 -6 -6 5 -15 7 -18 3 -4 -3 -7 3 -7
15 0 12 -4 22 -10 22 -5 0 -10 5 -10 10 0 6 10 10 23 9 12 0 16 -3 10 -6z
m-2169 -40 c16 -97 3 -147 -124 -468 -38 -98 -68 -180 -66 -182 2 -2 55 0 117
6 179 17 165 21 173 -51 3 -34 5 -63 3 -64 -2 -2 -66 -8 -143 -14 -76 -5 -164
-12 -195 -16 l-56 -6 -12 77 -11 76 76 192 c69 174 124 323 124 335 0 3 -54 2
-119 -2 l-119 -6 -4 62 c-2 35 -2 66 0 71 2 4 47 7 100 8 53 1 124 5 157 9 33
4 67 8 77 9 11 1 18 -10 22 -36z m2276 27 c0 -5 -8 -10 -17 -10 -15 0 -16 2
-3 10 19 12 20 12 20 0z m-153 -27 c-14 -4 -15 -8 -7 -18 8 -9 8 -15 0 -20 -5
-3 -10 1 -10 9 0 9 -7 16 -15 16 -30 0 -14 16 18 17 17 1 24 -1 14 -4z m108
-3 c3 -5 1 -10 -4 -10 -6 0 -11 5 -11 10 0 6 2 10 4 10 3 0 8 -4 11 -10z
m-2844 -14 c45 -19 100 -75 126 -128 32 -64 32 -66 -14 -93 l-42 -25 -16 34
c-27 57 -60 81 -112 81 -95 0 -138 -105 -110 -274 27 -165 99 -271 184 -271
56 0 103 67 103 147 l0 21 50 -21 c56 -23 57 -26 35 -112 -28 -106 -73 -154
-158 -170 -30 -6 -49 -2 -93 20 -192 94 -294 469 -185 683 52 101 145 145 232
108z m2769 -21 c0 -8 -2 -15 -4 -15 -2 0 -6 7 -10 15 -3 8 -1 15 4 15 6 0 10
-7 10 -15z m55 -64 c3 -5 2 -12 -3 -15 -5 -3 -9 1 -9 9 0 17 3 19 12 6z m-118
-27 c-3 -3 -12 -4 -19 -1 -8 3 -5 6 6 6 11 1 17 -2 13 -5z m34 -47 c-10 -9
-11 -8 -5 6 3 10 9 15 12 12 3 -3 0 -11 -7 -18z m114 -37 c3 -5 -1 -10 -9 -10
-9 0 -16 5 -16 10 0 6 4 10 9 10 6 0 13 -4 16 -10z m-50 -30 c3 -5 1 -10 -4
-10 -6 0 -11 5 -11 10 0 6 2 10 4 10 3 0 8 -4 11 -10z m-15 -34 c0 -2 -7 -6
-15 -10 -8 -3 -15 -1 -15 4 0 6 7 10 15 10 8 0 15 -2 15 -4z m-2339 -857 c30
-6 71 -21 92 -32 39 -22 87 -89 87 -122 0 -24 26 -22 710 51 139 15 268 36
300 48 9 4 24 0 34 -7 17 -13 16 -19 -27 -128 -24 -63 -62 -163 -82 -222 -33
-94 -44 -113 -82 -147 -87 -76 -294 -132 -498 -133 -139 -1 -198 17 -251 79
l-31 36 -214 -17 c-118 -9 -367 -20 -554 -25 -187 -5 -358 -12 -380 -16 -22
-3 -53 -1 -69 5 -26 10 -28 15 -23 47 8 48 20 60 80 80 80 26 142 60 160 88
23 35 22 37 -20 30 -44 -6 -74 11 -73 41 1 11 1 60 0 108 -1 103 15 139 77
174 118 65 572 102 764 62z m239 -618 c0 -5 -8 -12 -17 -14 -14 -4 -12 -5 5
-6 32 -2 30 -37 -3 -43 -14 -3 -28 -1 -31 3 -3 5 3 9 12 9 16 0 16 1 -1 14
-23 16 -14 46 15 46 11 0 20 -4 20 -9z m-185 -23 c3 12 10 20 15 17 9 -6 -10
-65 -22 -65 -11 0 -38 43 -38 60 0 10 6 8 19 -9 l19 -24 7 21z m85 -14 c0 -21
-4 -33 -10 -29 -5 3 -10 19 -10 36 0 16 5 29 10 29 6 0 10 -16 10 -36z m-174
-11 c2 -33 -9 -44 -20 -20 -5 10 -7 10 -12 0 -11 -25 -24 -13 -24 23 0 33 2
35 27 32 23 -3 28 -8 29 -35z m-216 17 c0 -5 -8 -10 -17 -11 -14 0 -13 -2 5
-9 12 -5 22 -16 22 -24 0 -19 -39 -31 -53 -17 -8 8 -4 11 14 12 l24 0 -22 9
c-22 9 -30 30 -16 43 10 11 43 8 43 -3z m106 -7 c0 -10 -8 -21 -16 -25 -12 -5
-12 -7 3 -7 9 -1 17 -6 17 -12 0 -6 -10 -9 -22 -7 -18 2 -24 11 -26 36 -3 28
0 32 21 32 17 0 24 -5 23 -17z m-620 -43 c7 -32 6 -34 -9 -21 -14 11 -20 11
-32 1 -19 -16 -19 -9 2 35 19 40 29 36 39 -15z m104 40 c0 -5 -8 -11 -17 -11
-17 -1 -17 -2 0 -6 27 -7 22 -43 -6 -43 -20 0 -24 5 -25 35 -1 31 1 35 23 35
14 0 25 -4 25 -10z m100 0 c0 -5 -4 -10 -10 -10 -5 0 -10 -11 -10 -25 0 -14
-4 -25 -10 -25 -5 0 -10 9 -10 19 0 11 -3 26 -6 35 -5 12 0 16 20 16 14 0 26
-4 26 -10z m98 -27 c3 -32 -11 -46 -21 -20 -4 9 -8 8 -16 -3 -15 -21 -22 -8
-15 29 5 25 11 31 28 29 16 -2 22 -11 24 -35z m107 2 c0 -25 -4 -30 -25 -30
-16 0 -26 6 -28 18 -6 30 6 49 30 45 18 -2 23 -9 23 -33z m-507 -11 c1 -31 -1
-35 -21 -32 -37 5 -36 68 1 68 15 0 19 -8 20 -36z m2117 -91 c5 -34 4 -43 -8
-43 -16 0 -32 73 -21 91 10 17 21 -2 29 -48z m-47 5 c8 -40 1 -70 -14 -55 -9
9 -22 85 -16 92 13 13 21 2 30 -37z m-43 -14 c3 -25 4 -48 1 -51 -10 -10 -26
9 -26 33 0 35 -14 30 -29 -11 -15 -42 -26 -44 -53 -10 -26 33 -35 32 -30 -5 3
-23 0 -30 -12 -30 -11 0 -16 9 -16 29 0 16 -3 36 -6 45 -4 11 2 17 21 22 22 5
31 1 51 -22 18 -23 23 -25 24 -11 0 21 34 57 54 57 9 0 16 -17 21 -46z m-189
-8 c13 -52 2 -70 -47 -80 -68 -13 -81 -5 -77 46 3 39 6 44 33 49 64 14 84 10
91 -15z m-146 -46 c0 -45 -2 -50 -22 -50 -12 0 -37 14 -55 32 l-33 32 0 -37
c0 -26 -4 -37 -15 -37 -11 0 -15 12 -15 50 0 45 2 50 22 50 12 0 37 -14 55
-32 l33 -32 0 37 c0 26 4 37 15 37 11 0 15 -12 15 -50z m-159 -10 c9 -45 -1
-56 -58 -64 -56 -7 -73 4 -73 51 0 40 23 53 85 50 36 -2 40 -5 46 -37z m-157
21 c3 -5 8 -27 11 -50 4 -32 2 -41 -10 -41 -8 0 -15 5 -15 10 0 6 -13 10 -30
10 -20 0 -30 -5 -30 -15 0 -8 -7 -15 -15 -15 -10 0 -15 11 -16 35 -1 19 -2 41
-3 48 -1 7 17 14 44 18 25 3 48 7 52 7 4 1 9 -2 12 -7z m-124 -16 c0 -8 -9
-15 -20 -15 -16 0 -20 -7 -20 -35 0 -46 -27 -49 -32 -2 -2 24 -7 31 -20 29
-11 -2 -18 3 -18 12 0 17 19 23 73 25 27 1 37 -3 37 -14z m-1180 -5 c0 -5 -4
-10 -10 -10 -5 0 -10 -5 -10 -11 0 -5 4 -8 8 -5 16 10 31 -11 34 -49 3 -34 0
-40 -23 -48 -14 -6 -38 -7 -52 -3 -22 5 -25 11 -24 48 2 36 6 43 25 46 27 4
28 10 5 28 -16 12 -15 13 15 14 17 0 32 -4 32 -10z m1054 -32 c8 -48 4 -53
-45 -61 -40 -6 -62 3 -58 24 1 8 -1 22 -6 32 -12 28 12 47 60 47 42 0 43 0 49
-42z m-276 11 c2 -13 -5 -16 -37 -15 -42 1 -68 -14 -57 -33 4 -6 22 -10 39
-10 18 1 24 3 15 6 -29 7 -20 23 13 23 27 0 30 -3 27 -27 -3 -26 -7 -28 -56
-31 -49 -3 -53 -1 -63 25 -17 46 -4 71 39 76 59 6 77 3 80 -14z m127 -11 c40
-65 39 -83 -3 -57 -12 8 -28 7 -59 -4 -51 -17 -54 -9 -22 53 27 51 56 54 84 8z
m-1078 -23 c9 -19 20 -35 23 -35 3 0 14 16 23 35 16 33 37 47 37 25 0 -28 -42
-90 -60 -90 -18 0 -60 62 -60 90 0 22 21 8 37 -25z m313 20 c0 -10 -11 -16
-32 -17 l-33 -1 33 -4 c46 -6 43 -33 -5 -35 l-38 -1 38 -4 c24 -3 37 -9 37
-19 0 -15 -20 -18 -69 -8 -29 6 -31 9 -31 50 0 36 3 43 23 47 50 10 77 7 77
-8z m308 -37 c3 -45 -8 -62 -23 -38 -3 6 -19 10 -36 10 -16 0 -29 -4 -29 -10
0 -5 -7 -10 -15 -10 -11 0 -15 12 -15 44 0 49 9 55 80 52 34 -1 35 -2 38 -48z
m150 5 c3 -38 0 -43 -21 -48 -13 -4 -41 -5 -63 -3 -35 3 -39 6 -45 37 -11 56
-4 62 65 59 l61 -3 3 -42z m-290 5 c-3 -30 -7 -33 -38 -36 -19 -2 -39 -10 -43
-18 -14 -25 -27 -5 -27 42 l0 44 56 0 55 0 -3 -32z"/>
<path d="M7668 5068 c-12 -10 -17 -39 -21 -131 -4 -116 -4 -117 16 -111 12 4
44 9 72 13 l50 6 9 94 c11 124 4 141 -62 141 -26 0 -55 -6 -64 -12z m67 -109
c0 -72 -2 -84 -17 -87 -16 -3 -18 6 -18 81 0 46 3 87 7 91 19 19 28 -7 28 -85z"/>
<path d="M7721 4985 c-2 -27 -5 -60 -6 -73 -1 -14 1 -20 7 -14 5 5 7 38 5 73
-3 62 -3 63 -6 14z"/>
<path d="M5018 5018 c-30 -32 -38 -49 -38 -78 0 -45 32 -78 83 -87 30 -5 36
-2 42 18 4 13 20 41 37 62 16 21 27 44 25 52 -6 13 -89 75 -103 75 -4 0 -24
-19 -46 -42z"/>
<path d="M5218 4998 c-8 -7 -18 -34 -22 -61 -6 -53 -29 -93 -57 -102 -24 -8
-24 -32 1 -72 28 -47 59 -63 133 -70 61 -5 70 -4 108 21 51 34 84 101 74 153
-13 72 -59 112 -140 124 -27 4 -57 10 -65 13 -9 4 -23 1 -32 -6z"/>
<path d="M5154 4925 c-12 -17 -25 -41 -29 -53 -6 -22 -5 -23 15 -12 23 12 43
54 38 79 -2 11 -9 8 -24 -14z"/>
<path d="M7367 4936 c-4 -10 -5 -21 -2 -24 9 -9 17 6 13 25 -3 17 -4 17 -11
-1z"/>
<path d="M7578 4946 c-20 -25 -28 -46 -28 -75 0 -30 -4 -41 -15 -41 -9 0 -15
9 -15 22 l0 21 -25 -23 c-32 -30 -31 -35 5 -50 24 -10 36 -10 59 0 38 15 53
53 49 123 l-3 57 -27 -34z"/>
<path d="M4935 4710 c-3 -5 -1 -10 4 -10 6 0 11 5 11 10 0 6 -2 10 -4 10 -3 0
-8 -4 -11 -10z"/>
<path d="M4904 4692 c15 -3 12 -7 -12 -22 -31 -19 -72 -92 -72 -129 0 -37 31
-92 63 -112 149 -90 349 84 246 215 -35 45 -70 56 -160 54 -45 -2 -74 -5 -65
-6z"/>
<path d="M5110 4680 c0 -6 7 -10 15 -10 8 0 15 2 15 4 0 2 -7 6 -15 10 -8 3
-15 1 -15 -4z"/>
<path d="M4800 4574 c0 -8 5 -12 10 -9 6 4 8 11 5 16 -9 14 -15 11 -15 -7z"/>
<path d="M8456 3772 c-3 -5 1 -9 9 -9 8 0 15 4 15 9 0 4 -4 8 -9 8 -6 0 -12
-4 -15 -8z"/>
<path d="M8520 3679 c0 -5 5 -7 10 -4 6 3 10 8 10 11 0 2 -4 4 -10 4 -5 0 -10
-5 -10 -11z"/>
<path d="M8530 3561 c0 -5 7 -12 16 -15 14 -5 15 -4 4 9 -14 17 -20 19 -20 6z"/>
<path d="M8565 3529 c-4 -5 1 -16 9 -25 9 -8 16 -13 16 -11 0 3 3 12 6 20 6
16 -22 31 -31 16z"/>
<path d="M8859 3402 c-1 -4 -1 -11 0 -15 1 -5 -9 -6 -21 -2 -18 5 -20 4 -8 -4
13 -9 13 -11 -2 -11 -10 0 -18 -4 -18 -10 0 -15 19 -12 37 6 10 9 25 13 38 10
19 -5 22 -2 18 12 -4 17 -42 29 -44 14z"/>
<path d="M8630 3349 c0 -5 5 -7 10 -4 6 3 10 8 10 11 0 2 -4 4 -10 4 -5 0 -10
-5 -10 -11z"/>
<path d="M8785 3330 c3 -5 8 -10 11 -10 2 0 4 5 4 10 0 6 -5 10 -11 10 -5 0
-7 -4 -4 -10z"/>
<path d="M8776 3255 c-11 -8 -14 -15 -8 -15 20 0 26 4 28 18 3 15 3 15 -20 -3z"/>
<path d="M8785 3210 c-3 -5 -1 -10 4 -10 6 0 11 5 11 10 0 6 -2 10 -4 10 -3 0
-8 -4 -11 -10z"/>
<path d="M8780 3180 c-9 -6 -10 -10 -3 -10 6 0 15 5 18 10 8 12 4 12 -15 0z"/>
<path d="M8630 3166 c0 -2 7 -7 16 -10 8 -3 12 -2 9 4 -6 10 -25 14 -25 6z"/>
<path d="M8795 3150 c-3 -5 2 -10 12 -10 15 0 16 -2 3 -10 -12 -8 -12 -10 3
-16 9 -3 14 -10 11 -15 -7 -11 7 -11 25 0 11 7 9 10 -8 16 -12 3 -19 10 -16
15 3 4 -2 13 -9 19 -10 8 -16 9 -21 1z"/>
<path d="M8776 3074 c14 -33 14 -36 0 -31 -21 8 -46 -2 -46 -19 0 -8 3 -15 8
-15 43 -7 62 -6 63 2 1 5 2 15 3 22 3 16 -26 77 -35 77 -5 0 -1 -16 7 -36z
m-6 -54 c0 -5 -4 -10 -10 -10 -5 0 -10 5 -10 10 0 6 5 10 10 10 6 0 10 -4 10
-10z"/>
<path d="M8740 3080 c0 -5 5 -10 11 -10 5 0 7 5 4 10 -3 6 -8 10 -11 10 -2 0
-4 -4 -4 -10z"/>
<path d="M8810 3065 c7 -9 15 -13 17 -11 7 7 -7 26 -19 26 -6 0 -6 -6 2 -15z"/>
<path d="M7763 3580 c-46 -28 -57 -53 -38 -90 16 -31 45 -39 75 -20 17 10 19
85 4 113 -9 15 -12 15 -41 -3z"/>
<path d="M7042 3623 c-40 -16 -54 -122 -26 -193 52 -129 173 -33 135 106 -20
75 -60 107 -109 87z"/>
<path d="M5389 3317 c-42 -19 -59 -38 -59 -66 0 -33 17 -51 46 -51 32 0 54 36
54 87 0 46 -2 47 -41 30z"/>
<path d="M6108 3340 c-20 -11 -41 -27 -46 -36 -12 -21 -4 -55 16 -71 41 -33
82 6 82 77 0 28 -3 50 -7 50 -5 -1 -25 -10 -45 -20z"/>
<path d="M6115 1783 c-121 -11 -273 -36 -319 -53 -95 -36 -135 -108 -107 -193
10 -28 9 -40 -1 -56 -22 -36 0 -56 61 -55 48 2 51 0 45 -20 -18 -59 -67 -94
-197 -141 -34 -12 -51 -25 -58 -43 -19 -48 0 -53 157 -42 76 5 223 10 326 10
170 0 262 4 623 29 l120 8 41 -41 c54 -56 108 -71 249 -70 129 1 260 24 365
65 90 34 141 74 162 126 40 95 150 404 146 409 -3 2 -34 -2 -69 -11 -68 -16
-705 -89 -875 -100 l-102 -6 -6 35 c-9 47 -50 95 -101 117 -71 31 -295 47
-460 32z m373 -54 c70 -12 126 -44 130 -76 4 -24 -21 -30 -138 -35 -56 -3 -65
-1 -62 14 1 9 -8 24 -20 32 -29 18 -137 28 -208 19 l-55 -8 -28 -74 c-15 -40
-26 -75 -23 -78 2 -3 97 0 210 6 114 6 214 7 224 4 35 -12 62 -46 61 -77 0
-17 -15 -69 -32 -116 l-33 -85 -79 -7 c-44 -3 -153 -9 -243 -13 l-164 -7 27
51 c14 28 43 69 64 90 41 41 72 51 211 68 48 6 65 12 65 23 0 13 -25 15 -168
15 l-168 0 -51 -121 -52 -121 -131 -6 c-71 -4 -159 -10 -194 -13 -47 -5 -62
-4 -57 4 4 7 16 12 26 12 11 0 45 10 77 22 73 27 151 103 175 172 l18 48 -58
-4 c-31 -3 -65 -9 -76 -13 -14 -6 -18 -5 -14 6 4 12 59 34 147 58 17 4 30 22
48 69 14 35 24 65 21 67 -9 9 -145 -26 -168 -43 -14 -11 -26 -31 -28 -46 -5
-37 -22 -22 -22 19 0 49 40 91 103 110 44 13 171 31 342 49 60 6 251 -3 323
-15z m1138 -172 c-23 -56 -53 -133 -65 -170 -37 -110 -92 -150 -260 -193 -200
-51 -416 -41 -457 22 -9 13 -15 26 -13 28 2 2 48 8 101 12 l98 9 21 -28 c21
-29 23 -29 93 -25 39 3 85 12 103 21 30 16 90 83 82 91 -2 3 -59 -3 -127 -11
-67 -9 -125 -14 -127 -11 -2 2 8 33 22 68 14 36 28 88 31 116 4 43 1 55 -18
74 -12 12 -20 23 -18 25 5 5 250 36 254 32 2 -2 -13 -46 -35 -98 -50 -124 -57
-154 -36 -145 9 3 23 6 30 6 36 0 84 62 120 154 l36 92 87 16 c48 8 95 16 104
17 14 1 10 -16 -26 -102z m-1286 84 c17 -5 26 -15 28 -34 4 -31 -4 -34 -130
-40 -95 -5 -98 -3 -79 47 6 13 20 26 33 29 36 7 120 6 148 -2z m-470 -42 c0
-24 -22 -48 -51 -54 -17 -4 -32 -5 -35 -2 -11 11 12 40 40 53 38 16 46 17 46
3z m1201 -48 c37 -38 37 -63 -4 -171 l-33 -85 -97 -10 c-54 -6 -97 -7 -97 -2
0 5 12 42 26 82 32 89 29 125 -10 143 -38 19 -44 11 -96 -124 l-43 -111 -80
-7 c-44 -4 -81 -5 -83 -3 -2 2 9 37 26 77 36 88 40 150 9 181 -11 11 -19 22
-17 24 2 1 88 8 193 15 104 6 192 13 194 16 2 2 22 4 43 4 30 0 46 -7 69 -29z"/>
<path d="M6330 1387 c-19 -5 -41 -14 -48 -20 -14 -11 -56 -87 -50 -92 2 -1 23
3 48 9 38 9 48 18 68 54 13 23 22 46 20 50 -2 5 -19 4 -38 -1z"/>
<path d="M6175 1609 c-4 -11 -4 -23 -1 -26 2 -3 46 -2 95 2 64 5 91 11 91 20
0 19 -24 25 -105 25 -66 0 -74 -2 -80 -21z"/>
<path d="M5814 1575 c-18 -15 -18 -15 5 -13 14 2 26 9 29 16 5 17 -10 15 -34
-3z"/>
<path d="M6120 1105 c0 -9 5 -15 11 -13 6 2 11 8 11 13 0 5 -5 11 -11 13 -6 2
-11 -4 -11 -13z"/>
<path d="M5617 1103 c-10 -9 -9 -23 1 -23 5 0 9 7 9 15 0 17 -1 18 -10 8z"/>
<path d="M7413 973 c-29 -6 -32 -43 -4 -43 33 0 51 11 51 31 0 19 -5 20 -47
12z"/>
<path d="M7084 925 c-10 -26 10 -39 43 -28 39 13 36 37 -5 41 -22 2 -34 -2
-38 -13z"/>
<path d="M6957 923 c-29 -7 -10 -20 22 -15 17 2 28 8 25 13 -5 9 -17 10 -47 2z"/>
<path d="M5683 873 c9 -2 23 -2 30 0 6 3 -1 5 -18 5 -16 0 -22 -2 -12 -5z"/>
<path d="M5683 833 c9 -2 23 -2 30 0 6 3 -1 5 -18 5 -16 0 -22 -2 -12 -5z"/>
<path d="M6715 910 c-18 -8 -17 -9 8 -9 16 -1 26 3 22 9 -3 6 -7 10 -8 9 -1 0
-11 -4 -22 -9z"/>
<path d="M6690 870 c0 -5 11 -10 25 -10 14 0 25 5 25 10 0 6 -11 10 -25 10
-14 0 -25 -4 -25 -10z"/>
<path d="M6576 893 c-11 -11 -6 -23 9 -23 8 0 15 4 15 9 0 13 -16 22 -24 14z"/>
<path d="M6080 870 c0 -5 14 -10 30 -10 17 0 30 5 30 10 0 6 -13 10 -30 10
-16 0 -30 -4 -30 -10z"/>
<path d="M6214 869 c-10 -17 11 -31 42 -27 18 2 30 10 32 21 3 13 -4 17 -32
17 -19 0 -38 -5 -42 -11z"/>
<path d="M5950 870 c0 -5 11 -10 25 -10 14 0 25 5 25 10 0 6 -11 10 -25 10
-14 0 -25 -4 -25 -10z"/>
<path d="M7750 6161 c0 -10 7 -32 16 -47 l16 -29 -5 34 c-3 28 -2 31 8 18 10
-14 12 -14 23 3 13 21 2 33 -22 24 -9 -3 -16 -1 -16 5 0 6 -4 11 -10 11 -5 0
-10 -8 -10 -19z"/>
<path d="M7085 6160 c-8 -13 -1 -24 14 -19 6 3 7 10 2 18 -6 10 -10 10 -16 1z"/>
<path d="M3906 6083 c-6 -14 -5 -15 5 -6 7 7 10 15 7 18 -3 3 -9 -2 -12 -12z"/>
<path d="M7135 6060 c3 -5 8 -10 11 -10 2 0 4 5 4 10 0 6 -5 10 -11 10 -5 0
-7 -4 -4 -10z"/>
<path d="M4100 6035 c0 -8 4 -15 10 -15 5 0 7 7 4 15 -4 8 -8 15 -10 15 -2 0
-4 -7 -4 -15z"/>
<path d="M7180 5971 c0 -9 30 -24 36 -18 2 1 -6 8 -16 15 -11 7 -20 8 -20 3z"/>
<path d="M4870 5910 c0 -23 -4 -28 -17 -24 -10 3 -8 -1 5 -8 12 -8 20 -17 16
-20 -3 -4 3 -18 14 -32 10 -14 22 -22 26 -19 3 3 6 -1 6 -10 0 -9 5 -17 10
-17 6 0 10 -8 10 -17 1 -10 14 20 30 67 34 97 34 98 18 82 -9 -9 -14 -7 -23 5
-13 18 -56 24 -67 8 -5 -6 -8 -6 -8 3 0 6 -4 12 -10 12 -5 0 -10 -13 -10 -30z"/>
<path d="M7370 5760 c-6 -11 -8 -20 -6 -20 3 0 10 9 16 20 6 11 8 20 6 20 -3
0 -10 -9 -16 -20z"/>
<path d="M7341 5703 c-10 -26 -10 -27 4 -9 8 11 15 23 15 28 0 15 -7 8 -19
-19z"/>
<path d="M5266 5630 c22 -87 165 -338 270 -475 53 -69 198 -220 241 -250 12
-8 -25 32 -83 90 -150 153 -284 348 -390 569 -24 50 -41 80 -38 66z"/>
<path d="M4216 5627 c3 -10 9 -15 12 -12 3 3 0 11 -7 18 -10 9 -11 8 -5 -6z"/>
<path d="M4285 5550 c3 -5 8 -10 11 -10 2 0 4 5 4 10 0 6 -5 10 -11 10 -5 0
-7 -4 -4 -10z"/>
<path d="M7860 5313 c0 -21 22 -73 31 -73 5 0 2 17 -6 37 -17 40 -25 52 -25
36z"/>
<path d="M7899 5208 c4 -12 13 -24 20 -26 9 -3 9 2 0 22 -15 32 -32 35 -20 4z"/>
<path d="M7920 5164 c0 -13 330 -677 335 -673 2 3 -13 41 -34 85 -64 131 -118
248 -125 267 -3 9 -10 17 -16 17 -6 0 -8 5 -5 10 3 6 1 10 -5 10 -7 0 -10 7
-6 15 3 8 1 15 -4 15 -6 0 -9 3 -8 8 1 8 -42 105 -51 112 -3 3 -7 14 -9 24 -2
10 -10 25 -17 32 -7 8 -19 30 -25 49 -6 19 -16 35 -21 35 -5 0 -9 -3 -9 -6z"/>
<path d="M5827 4869 c7 -7 15 -10 18 -7 3 3 -2 9 -12 12 -14 6 -15 5 -6 -5z"/>
<path d="M8990 3673 c0 -11 21 -33 32 -33 4 0 8 8 8 17 0 9 -3 13 -7 10 -3 -4
-12 -2 -20 4 -7 6 -13 7 -13 2z"/>
<path d="M9045 3660 c-3 -5 -1 -10 4 -10 6 0 11 5 11 10 0 6 -2 10 -4 10 -3 0
-8 -4 -11 -10z"/>
<path d="M9100 3625 c0 -8 4 -15 8 -15 5 0 9 7 9 15 0 8 -4 15 -9 15 -4 0 -8
-7 -8 -15z"/>
<path d="M9060 3623 c0 -15 24 -63 33 -63 13 0 7 21 -13 47 -11 14 -20 21 -20
16z"/>
<path d="M9047 3585 c10 -51 21 -73 41 -84 17 -9 18 -7 14 15 -2 13 -8 27 -13
30 -5 3 -6 -2 -3 -10 3 -9 1 -16 -5 -16 -6 0 -11 8 -11 18 -1 9 -7 31 -15 47
l-14 30 6 -30z"/>
<path d="M9110 3287 c0 -31 3 -36 28 -39 l27 -4 -27 -14 c-16 -7 -28 -17 -28
-22 0 -5 10 -2 22 6 16 12 25 13 35 4 41 -34 13 40 -31 81 l-26 24 0 -36z"/>
<path d="M9138 3159 c-33 -17 -53 -49 -30 -49 8 0 72 58 72 66 0 6 0 6 -42
-17z"/>
<path d="M9091 3044 c0 -11 3 -14 6 -6 3 7 2 16 -1 19 -3 4 -6 -2 -5 -13z"/>
<path d="M9123 2983 c-28 -4 -33 -9 -48 -58 -10 -30 -18 -74 -19 -99 0 -24 -4
-42 -8 -39 -5 2 -8 -3 -8 -12 0 -9 5 -13 10 -10 6 3 11 3 11 -2 8 -57 7 -65
-10 -70 -13 -3 -24 -24 -35 -66 -28 -101 -95 -287 -128 -353 -17 -34 -28 -66
-25 -71 3 -5 11 -47 16 -92 10 -81 55 -273 68 -295 4 -6 9 -22 11 -36 5 -35
12 -38 12 -5 0 26 2 27 14 15 16 -16 11 -74 -5 -64 -5 3 -9 2 -9 -3 0 -4 12
-13 26 -20 23 -11 24 -10 12 4 -11 14 -10 15 11 8 21 -6 23 -5 16 11 -4 11 -7
27 -7 37 0 9 -3 17 -8 17 -4 0 -11 8 -15 18 -5 14 -4 15 6 4 17 -16 29 -15 29
3 0 8 -6 15 -12 15 -8 1 -5 7 6 15 16 12 17 17 5 31 -18 22 -23 64 -7 65 7 0
4 4 -7 9 -11 5 -14 9 -7 9 18 1 15 22 -5 37 -15 11 -16 13 -2 14 8 0 21 -6 29
-12 8 -7 4 -1 -9 15 -14 15 -19 27 -12 27 9 0 9 5 1 20 -10 19 -4 25 22 21 3
0 3 12 -1 27 -4 15 -6 33 -3 41 3 9 0 11 -8 6 -8 -5 -11 -3 -8 6 3 8 11 13 18
11 8 -2 11 7 8 26 -2 17 2 34 11 42 12 12 12 15 -5 20 -15 6 -16 8 -3 16 20
12 41 134 22 127 -18 -7 -16 2 3 21 14 15 14 16 -3 16 -10 0 -14 3 -8 8 15 10
17 54 3 46 -8 -5 -9 -1 -5 10 4 10 7 20 7 22 0 2 8 4 18 4 15 1 15 2 2 13 -18
15 -23 50 -6 44 9 -4 12 7 11 34 -1 21 1 39 4 39 3 0 6 13 7 30 1 19 -3 27
-10 23 -6 -4 -5 0 2 9 9 11 10 18 2 23 -5 3 -9 16 -9 28 1 17 2 18 6 5 9 -34
19 -17 18 30 0 26 4 53 9 60 6 9 4 11 -8 6 -21 -8 -21 12 0 24 10 6 13 12 6
16 -13 8 1 62 16 59 5 -1 13 4 16 12 3 8 4 14 3 13 -1 0 -16 -3 -34 -5z m-23
-189 c0 -2 -7 -4 -15 -4 -8 0 -15 4 -15 10 0 5 7 7 15 4 8 -4 15 -8 15 -10z
m-20 -194 c0 -5 -4 -10 -10 -10 -5 0 -10 5 -10 10 0 6 5 10 10 10 6 0 10 -4
10 -10z m-50 -740 c0 -5 -4 -10 -10 -10 -5 0 -10 5 -10 10 0 6 5 10 10 10 6 0
10 -4 10 -10z m-10 -125 c11 -13 10 -14 -4 -9 -9 3 -16 10 -16 15 0 13 6 11
20 -6z"/>
<path d="M9042 2725 c0 -16 2 -22 5 -12 2 9 2 23 0 30 -3 6 -5 -1 -5 -18z"/>
<path d="M8761 2137 c-13 -21 -12 -21 5 -5 10 10 16 20 13 22 -3 3 -11 -5 -18
-17z"/>
<path d="M8669 2033 c-13 -16 -12 -17 4 -4 16 13 21 21 13 21 -2 0 -10 -8 -17
-17z"/>
<path d="M8624 2018 c-4 -7 -4 -10 1 -6 4 4 15 2 24 -5 14 -11 14 -10 2 6 -16
20 -18 21 -27 5z"/>
<path d="M8604 1955 c-4 -8 -11 -12 -17 -8 -6 3 -7 1 -3 -5 10 -16 14 -15 26
8 6 11 8 20 5 20 -3 0 -8 -7 -11 -15z"/>
<path d="M8689 1957 c-18 -15 -43 -47 -37 -47 10 0 62 50 57 54 -3 3 -12 0
-20 -7z"/>
<path d="M8710 1933 c-28 -11 -121 -100 -150 -144 -16 -24 -42 -62 -57 -84
-16 -22 -34 -53 -41 -69 -11 -26 -11 -28 1 -17 13 10 20 2 45 -46 16 -32 70
-137 120 -233 50 -96 109 -221 131 -278 l40 -102 -40 -33 c-22 -17 -56 -47
-77 -64 -20 -18 -39 -33 -42 -33 -3 0 -23 44 -45 98 -48 118 -138 304 -201
413 -35 60 -44 83 -35 92 6 6 11 20 11 30 0 34 -46 -44 -76 -130 -26 -75 -27
-85 -26 -268 1 -104 6 -242 12 -305 6 -63 19 -218 30 -345 11 -126 24 -270 30
-320 5 -50 10 -91 10 -92 0 -2 123 -3 274 -3 l274 0 -18 53 c-10 29 -42 139
-70 245 -28 106 -67 238 -86 294 l-35 101 53 54 54 54 58 -22 c35 -14 80 -42
111 -71 45 -41 52 -44 50 -25 -1 12 -3 38 -4 57 l-2 35 -13 -25 -14 -24 2 29
c1 17 5 36 9 43 5 6 5 18 0 25 -4 6 -6 21 -4 32 2 15 0 17 -11 8 -10 -9 -13
-6 -14 13 -2 19 1 22 11 14 11 -9 12 -7 8 9 -3 12 -10 18 -15 15 -6 -4 -5 3 1
14 12 23 0 38 -21 27 -7 -4 -6 -1 3 7 22 18 28 40 18 60 -5 9 -5 27 0 40 10
28 -7 71 -26 64 -19 -8 -16 15 4 30 10 7 14 16 10 20 -4 5 -12 2 -16 -5 -6
-10 -10 -10 -16 -2 -4 7 -1 22 7 34 16 26 3 67 -22 68 -9 0 -7 4 8 11 12 6 22
18 22 27 0 12 -3 12 -12 3 -7 -7 -16 -12 -21 -12 -5 0 -1 7 7 16 16 16 12 39
-5 29 -5 -4 -9 -1 -9 4 0 6 8 11 18 11 16 1 16 2 -2 15 -18 13 -14 41 5 29 15
-9 6 17 -15 42 -10 13 -23 21 -28 18 -4 -3 -8 2 -8 10 0 8 5 18 11 21 6 4 8
13 5 21 -3 8 -1 14 4 14 10 0 3 25 -35 125 -15 39 -44 117 -64 175 -36 103
-47 116 -81 103z m254 -839 c4 -10 1 -14 -6 -12 -15 5 -23 28 -10 28 5 0 13
-7 16 -16z m-4 -28 c0 -2 -7 -7 -16 -10 -8 -3 -12 -2 -9 4 6 10 25 14 25 6z"/>
<path d="M4384 1895 c37 -139 88 -394 96 -485 7 -63 14 -117 17 -120 3 -3 3
87 0 200 l-4 205 -57 110 c-31 61 -55 101 -52 90z"/>
<path d="M8514 1848 c0 -10 1 -18 3 -18 1 0 7 8 12 18 7 13 6 19 -2 19 -7 0
-13 -9 -13 -19z"/>
<path d="M8456 1771 c-4 -5 -2 -12 3 -15 5 -4 12 -2 15 3 4 5 2 12 -3 15 -5 4
-12 2 -15 -3z"/>
<path d="M8980 1684 c0 -8 5 -12 10 -9 6 4 8 11 5 16 -9 14 -15 11 -15 -7z"/>
<path d="M8420 1630 c-6 -11 -8 -20 -6 -20 3 0 10 9 16 20 6 11 8 20 6 20 -3
0 -10 -9 -16 -20z"/>
<path d="M8996 1627 c3 -10 9 -15 12 -12 3 3 0 11 -7 18 -10 9 -11 8 -5 -6z"/>
<path d="M8343 1595 c0 -8 4 -12 9 -9 5 3 6 10 3 15 -9 13 -12 11 -12 -6z"/>
<path d="M4566 1544 c3 -27 1 -94 -6 -149 -19 -173 -24 -309 -11 -333 17 -33
31 -27 31 14 0 20 7 92 16 159 l17 123 58 -46 c33 -25 59 -50 59 -56 0 -6 -12
-78 -25 -161 l-25 -150 32 -27 c18 -16 35 -25 39 -20 3 4 21 98 39 210 l32
203 -99 102 c-54 56 -113 120 -131 141 l-32 40 6 -50z"/>
<path d="M9011 1564 c0 -11 3 -14 6 -6 3 7 2 16 -1 19 -3 4 -6 -2 -5 -13z"/>
<path d="M8886 1491 c-4 -6 3 -15 14 -21 23 -12 27 2 6 19 -9 8 -16 8 -20 2z"/>
<path d="M8937 1369 c4 -13 8 -18 11 -10 2 7 -1 18 -6 23 -8 8 -9 4 -5 -13z"/>
<path d="M9083 1195 c0 -22 2 -30 4 -17 2 12 2 30 0 40 -3 9 -5 -1 -4 -23z"/>
<path d="M4965 1088 c-25 -104 -86 -428 -96 -508 -7 -55 -17 -100 -22 -100
-17 0 -141 88 -186 131 -24 23 -57 63 -73 88 -22 33 -29 39 -25 21 3 -14 11
-54 17 -90 19 -111 149 -604 157 -596 2 2 -1 43 -6 92 -5 49 -13 133 -16 188
l-6 99 53 -38 c29 -21 59 -43 65 -49 12 -11 8 -116 -12 -283 l-5 -43 191 0
191 0 -6 83 c-7 80 -18 150 -56 352 -11 55 -26 156 -35 225 -28 219 -41 283
-73 353 -18 37 -32 72 -32 77 0 20 -20 19 -25 -2z"/>
<path d="M6635 469 c-71 -3 -142 -7 -157 -8 -26 -1 -28 -4 -28 -43 0 -74 -3
-73 182 -61 150 10 165 10 188 -6 57 -40 28 -101 -49 -101 -118 -1 -215 -40
-260 -105 -19 -29 -45 -134 -35 -144 2 -2 21 14 42 37 54 58 111 80 247 96 97
11 121 18 156 41 48 34 69 70 69 120 0 83 -62 155 -150 174 -28 6 -56 10 -63
9 -7 -1 -70 -5 -142 -9z"/>
<path d="M8950 326 c0 -4 37 -181 48 -226 l6 -25 6 25 c4 15 1 34 -7 46 -12
19 -12 24 2 37 9 10 11 18 5 22 -5 3 -10 12 -10 18 0 7 4 6 10 -3 9 -13 10
-13 10 1 0 8 -14 37 -31 62 -28 42 -39 55 -39 43z"/>
<path d="M6960 165 c-13 -13 -32 -27 -42 -31 -15 -4 -17 -12 -13 -37 12 -62
-6 -71 -162 -83 l-138 -11 212 -2 211 -1 12 34 c13 40 0 108 -26 137 -22 24
-26 24 -54 -6z"/>
<path d="M9010 171 c0 -6 4 -13 10 -16 6 -3 7 1 4 9 -7 18 -14 21 -14 7z"/>
<path d="M9010 54 c0 -13 18 -39 24 -34 2 3 -2 14 -10 24 -8 11 -14 16 -14 10z"/>
</g>
</svg>
